M48
; DRILL file KiCad 10.0.4 date 2026-06-24T20:40:02
; FORMAT={-:-/ absolute / metric / decimal}
; #@! TF.CreationDate,2026-06-24T20:40:02+09:00
; #@! TF.GenerationSoftware,Kicad,Pcbnew,10.0.4
; #@! TF.FileFunction,Plated,1,2,PTH
FMAT,2
METRIC
; #@! TA.AperFunction,Plated,PTH,ViaDrill
T1C0.600
; #@! TA.AperFunction,Plated,PTH,ComponentDrill
T2C0.700
; #@! TA.AperFunction,Plated,PTH,ComponentDrill
T3C0.900
; #@! TA.AperFunction,Plated,PTH,ComponentDrill
T4C1.000
; #@! TA.AperFunction,Plated,PTH,ComponentDrill
T5C1.100
; #@! TA.AperFunction,Plated,PTH,ComponentDrill
T6C3.200
%
G90
G05
T1
X5.0Y-13.0
X5.0Y-18.0
X5.0Y-32.0
X5.0Y-37.0
X10.0Y-3.0
X10.0Y-8.0
X10.0Y-13.0
X10.0Y-18.0
X10.0Y-32.0
X10.0Y-37.0
X10.0Y-42.0
X10.0Y-47.0
X15.0Y-3.0
X15.0Y-32.0
X15.0Y-37.0
X15.0Y-42.0
X15.0Y-47.0
X20.0Y-3.0
X20.0Y-42.0
X20.0Y-47.0
X21.0Y-15.0
X21.0Y-30.0
X25.0Y-3.0
X25.0Y-42.0
X25.0Y-47.0
X27.0Y-15.0
X27.0Y-30.0
X30.0Y-3.0
X30.0Y-42.0
X30.0Y-47.0
X33.0Y-15.0
X33.0Y-30.0
X35.0Y-3.0
X35.0Y-42.0
X35.0Y-47.0
X39.0Y-15.0
X39.0Y-20.0
X39.0Y-30.0
X40.0Y-3.0
X40.0Y-42.0
X40.0Y-47.0
X45.0Y-3.0
X45.0Y-15.0
X45.0Y-20.0
X45.0Y-30.0
X45.0Y-42.0
X45.0Y-47.0
X50.0Y-47.0
X51.0Y-15.0
X51.0Y-20.0
X51.0Y-30.0
X57.0Y-15.0
X57.0Y-20.0
X57.0Y-25.0
X57.0Y-30.0
X57.0Y-35.0
X57.0Y-40.0
T2
X37.46Y-10.0
X42.54Y-10.0
T3
X47.685Y-10.0
X47.685Y-25.0
X47.685Y-38.0
X50.225Y-10.0
X50.225Y-25.0
X50.225Y-38.0
T5
X24.0Y-8.0
X24.0Y-12.5
X24.0Y-21.5
X24.0Y-26.0
X24.0Y-35.5
X24.0Y-40.0
X30.5Y-8.0
X30.5Y-12.5
X30.5Y-21.5
X30.5Y-26.0
X30.5Y-35.5
X30.5Y-40.0
T6
X5.0Y-5.0
X5.0Y-45.0
X55.0Y-5.0
X55.0Y-45.0
T4
G00X9.3Y-23.9
M15
G01X9.3Y-26.1
M16
G05
G00X13.7Y-29.7
M15
G01X11.5Y-29.7
M16
G05
G00X15.5Y-23.7
M15
G01X15.5Y-26.3
M16
G05
M30
