%TF.GenerationSoftware,KiCad,Pcbnew,10.0.4*%
%TF.CreationDate,2026-06-24T20:40:17+09:00*%
%TF.ProjectId,kicadpractice,6b696361-6470-4726-9163-746963652e6b,rev?*%
%TF.SameCoordinates,Original*%
%TF.FileFunction,Copper,L2,Bot*%
%TF.FilePolarity,Positive*%
%FSLAX46Y46*%
G04 Gerber Fmt 4.6, Leading zero omitted, Abs format (unit mm)*
G04 Created by KiCad (PCBNEW 10.0.4) date 2026-06-24 20:40:17*
%MOMM*%
%LPD*%
G01*
G04 APERTURE LIST*
%TA.AperFunction,ComponentPad*%
%ADD10C,1.800000*%
%TD*%
%TA.AperFunction,ComponentPad*%
%ADD11R,1.800000X1.800000*%
%TD*%
%TA.AperFunction,ComponentPad*%
%ADD12R,2.000000X4.600000*%
%TD*%
%TA.AperFunction,ComponentPad*%
%ADD13O,2.000000X4.200000*%
%TD*%
%TA.AperFunction,ComponentPad*%
%ADD14O,4.200000X2.000000*%
%TD*%
%TA.AperFunction,ComponentPad*%
%ADD15C,2.000000*%
%TD*%
%TA.AperFunction,ComponentPad*%
%ADD16C,5.500000*%
%TD*%
%TA.AperFunction,ComponentPad*%
%ADD17C,1.400000*%
%TD*%
%TA.AperFunction,ViaPad*%
%ADD18C,1.000000*%
%TD*%
G04 APERTURE END LIST*
D10*
%TO.P,D2,2,A_2*%
%TO.N,Net-(D2-A)*%
X47685000Y-25000000D03*
D11*
%TO.P,D2,1,K_1*%
%TO.N,GND*%
X50225000Y-25000000D03*
%TD*%
%TO.P,D3,1,K_1*%
%TO.N,GND*%
X50225000Y-38000000D03*
D10*
%TO.P,D3,2,A_2*%
%TO.N,Net-(D3-A)*%
X47685000Y-38000000D03*
%TD*%
%TO.P,D1,2,A_2*%
%TO.N,Net-(D1-A)*%
X47685000Y-10000000D03*
D11*
%TO.P,D1,1,K_1*%
%TO.N,GND*%
X50225000Y-10000000D03*
%TD*%
D12*
%TO.P,J1,1*%
%TO.N,VCC*%
X15500000Y-25000000D03*
D13*
%TO.P,J1,2*%
%TO.N,GND*%
X9300000Y-25000000D03*
D14*
X12600000Y-29700000D03*
%TD*%
D15*
%TO.P,SW3,2,B_2*%
%TO.N,Net-(SW3-B)*%
X30500000Y-40000000D03*
X24000000Y-40000000D03*
%TO.P,SW3,1,A_1*%
%TO.N,VCC*%
X30500000Y-35500000D03*
X24000000Y-35500000D03*
%TD*%
%TO.P,SW1,1,A_1*%
%TO.N,VCC*%
X24000000Y-8000000D03*
X30500000Y-8000000D03*
%TO.P,SW1,2,B_2*%
%TO.N,Net-(SW1-B)*%
X24000000Y-12500000D03*
X30500000Y-12500000D03*
%TD*%
%TO.P,SW2,2,B_2*%
%TO.N,Net-(SW2-B)*%
X30500000Y-26000000D03*
X24000000Y-26000000D03*
%TO.P,SW2,1,A_1*%
%TO.N,VCC*%
X30500000Y-21500000D03*
X24000000Y-21500000D03*
%TD*%
D16*
%TO.P,H4,1,1_1*%
%TO.N,unconnected-(H4-Pad1)*%
X5000000Y-45000000D03*
%TD*%
%TO.P,H3,1,1_1*%
%TO.N,unconnected-(H3-Pad1)*%
X55000000Y-45000000D03*
%TD*%
%TO.P,H2,1,1_1*%
%TO.N,unconnected-(H2-Pad1)*%
X55000000Y-5000000D03*
%TD*%
%TO.P,H1,1,1_1*%
%TO.N,unconnected-(H1-Pad1)*%
X5000000Y-5000000D03*
%TD*%
D17*
%TO.P,R1,2*%
%TO.N,Net-(D1-A)*%
X42540000Y-10000000D03*
%TO.P,R1,1*%
%TO.N,Net-(SW1-B)*%
X37460000Y-10000000D03*
%TD*%
D18*
%TO.N,GND*%
X21000000Y-30000000D03*
X27000000Y-30000000D03*
X33000000Y-30000000D03*
X39000000Y-30000000D03*
X45000000Y-30000000D03*
X51000000Y-30000000D03*
X51000000Y-20000000D03*
X45000000Y-20000000D03*
X39000000Y-20000000D03*
X21000000Y-15000000D03*
X27000000Y-15000000D03*
X33000000Y-15000000D03*
X39000000Y-15000000D03*
X45000000Y-15000000D03*
X51000000Y-15000000D03*
X5000000Y-13000000D03*
X5000000Y-18000000D03*
X10000000Y-18000000D03*
X10000000Y-13000000D03*
X10000000Y-8000000D03*
X15000000Y-37000000D03*
X15000000Y-32000000D03*
X10000000Y-32000000D03*
X5000000Y-32000000D03*
X5000000Y-37000000D03*
X10000000Y-37000000D03*
X45000000Y-42000000D03*
X35000000Y-42000000D03*
X30000000Y-42000000D03*
X40000000Y-42000000D03*
X25000000Y-42000000D03*
X15000000Y-42000000D03*
X10000000Y-42000000D03*
X20000000Y-42000000D03*
X57000000Y-20000000D03*
X57000000Y-25000000D03*
X57000000Y-15000000D03*
X57000000Y-30000000D03*
X57000000Y-35000000D03*
X57000000Y-40000000D03*
X50000000Y-47000000D03*
X30000000Y-47000000D03*
X35000000Y-47000000D03*
X40000000Y-47000000D03*
X45000000Y-47000000D03*
X10000000Y-47000000D03*
X15000000Y-47000000D03*
X20000000Y-47000000D03*
X25000000Y-47000000D03*
X30000000Y-3000000D03*
X35000000Y-3000000D03*
X40000000Y-3000000D03*
X45000000Y-3000000D03*
X25000000Y-3000000D03*
X20000000Y-3000000D03*
X15000000Y-3000000D03*
X10000000Y-3000000D03*
%TD*%
M02*
