%TF.GenerationSoftware,KiCad,Pcbnew,10.0.4*%
%TF.CreationDate,2026-06-24T20:40:17+09:00*%
%TF.ProjectId,kicadpractice,6b696361-6470-4726-9163-746963652e6b,rev?*%
%TF.SameCoordinates,Original*%
%TF.FileFunction,Legend,Top*%
%TF.FilePolarity,Positive*%
%FSLAX46Y46*%
G04 Gerber Fmt 4.6, Leading zero omitted, Abs format (unit mm)*
G04 Created by KiCad (PCBNEW 10.0.4) date 2026-06-24 20:40:17*
%MOMM*%
%LPD*%
G01*
G04 APERTURE LIST*
%ADD10C,0.300000*%
%ADD11C,0.000000*%
%ADD12C,0.120000*%
G04 APERTURE END LIST*
D10*
G36*
X4489911Y-40745000D02*
G01*
X4489911Y-39937899D01*
X4497056Y-39687306D01*
X4500170Y-39619528D01*
X4487805Y-39619528D01*
X4437613Y-39859863D01*
X4221366Y-40745000D01*
X3805360Y-40745000D01*
X3578947Y-39870122D01*
X3530770Y-39619528D01*
X3518497Y-39619528D01*
X3532876Y-40050831D01*
X3532876Y-40745000D01*
X3144439Y-40745000D01*
X3144439Y-39273681D01*
X3807466Y-39273681D01*
X4009333Y-40071622D01*
X4028201Y-40171548D01*
X4043130Y-40287777D01*
X4049267Y-40287777D01*
X4085170Y-40067500D01*
X4273665Y-39273681D01*
X4926434Y-39273681D01*
X4926434Y-40745000D01*
X4489911Y-40745000D01*
G37*
G36*
X5638830Y-39411800D02*
G01*
X5631148Y-39470390D01*
X5608968Y-39519669D01*
X5571693Y-39561918D01*
X5523945Y-39593097D01*
X5465926Y-39612584D01*
X5394923Y-39619528D01*
X5326142Y-39612465D01*
X5268719Y-39592418D01*
X5220259Y-39559903D01*
X5182073Y-39516445D01*
X5159729Y-39467726D01*
X5152115Y-39411800D01*
X5159670Y-39354524D01*
X5181481Y-39306425D01*
X5218152Y-39265254D01*
X5265179Y-39235050D01*
X5323137Y-39216024D01*
X5394923Y-39209200D01*
X5466039Y-39215980D01*
X5524060Y-39234971D01*
X5571693Y-39265254D01*
X5609030Y-39306507D01*
X5631172Y-39354604D01*
X5638830Y-39411800D01*
G37*
G36*
X5176661Y-40745000D02*
G01*
X5176661Y-39695732D01*
X5613184Y-39695732D01*
X5613184Y-40745000D01*
X5176661Y-40745000D01*
G37*
G36*
X6503358Y-40745000D02*
G01*
X6503358Y-40171456D01*
X6494758Y-40081862D01*
X6474140Y-40031413D01*
X6451551Y-40008400D01*
X6420870Y-39994062D01*
X6379344Y-39988824D01*
X6344045Y-39993875D01*
X6315212Y-40008398D01*
X6291233Y-40032971D01*
X6267884Y-40081509D01*
X6259451Y-40145811D01*
X6259451Y-40745000D01*
X5822928Y-40745000D01*
X5822928Y-39695732D01*
X6259451Y-39695732D01*
X6259451Y-39859863D01*
X6263572Y-39859863D01*
X6302645Y-39804509D01*
X6349209Y-39758648D01*
X6403890Y-39721469D01*
X6464286Y-39694182D01*
X6527875Y-39677819D01*
X6595590Y-39672285D01*
X6687984Y-39681356D01*
X6762077Y-39706611D01*
X6821830Y-39746759D01*
X6869735Y-39802791D01*
X6906478Y-39877834D01*
X6930846Y-39976779D01*
X6939881Y-40105877D01*
X6939881Y-40745000D01*
X6503358Y-40745000D01*
G37*
G36*
X7805508Y-40745000D02*
G01*
X7805508Y-40586730D01*
X7801386Y-40586730D01*
X7746575Y-40652934D01*
X7703476Y-40692976D01*
X7657519Y-40723318D01*
X7605198Y-40747564D01*
X7547674Y-40762934D01*
X7477612Y-40768447D01*
X7392993Y-40760784D01*
X7322815Y-40739212D01*
X7264236Y-40704770D01*
X7215295Y-40656980D01*
X7178424Y-40599726D01*
X7150262Y-40527954D01*
X7131864Y-40438535D01*
X7125170Y-40327711D01*
X7125170Y-39695732D01*
X7561693Y-39695732D01*
X7561693Y-40296936D01*
X7570686Y-40371285D01*
X7593467Y-40416779D01*
X7627850Y-40442678D01*
X7677464Y-40451908D01*
X7717722Y-40446855D01*
X7748893Y-40432772D01*
X7773176Y-40409868D01*
X7796620Y-40361908D01*
X7805508Y-40290799D01*
X7805508Y-39695732D01*
X8242031Y-39695732D01*
X8242031Y-40745000D01*
X7805508Y-40745000D01*
G37*
D11*
%TO.C,G\u002A\u002A\u002A*%
G36*
X12429194Y-37696082D02*
G01*
X12524096Y-37712096D01*
X12587510Y-37743332D01*
X12613378Y-37768682D01*
X12635376Y-37797684D01*
X12655817Y-37836981D01*
X12677014Y-37893216D01*
X12701281Y-37973029D01*
X12730929Y-38083064D01*
X12768273Y-38229963D01*
X12796688Y-38344007D01*
X12844881Y-38535510D01*
X12884564Y-38685960D01*
X12917994Y-38802145D01*
X12947433Y-38890849D01*
X12975137Y-38958860D01*
X13003366Y-39012961D01*
X13034379Y-39059941D01*
X13035537Y-39061531D01*
X13081183Y-39135579D01*
X13137785Y-39244751D01*
X13200323Y-39377813D01*
X13263778Y-39523531D01*
X13323130Y-39670669D01*
X13373358Y-39807994D01*
X13385928Y-39845696D01*
X13420784Y-39948473D01*
X13447612Y-40012584D01*
X13471396Y-40046640D01*
X13497123Y-40059250D01*
X13510145Y-40060223D01*
X13576432Y-40068378D01*
X13635687Y-40088491D01*
X13673336Y-40114034D01*
X13677451Y-40135165D01*
X13643584Y-40149552D01*
X13590763Y-40145653D01*
X13526916Y-40137969D01*
X13494538Y-40155973D01*
X13487467Y-40207460D01*
X13494286Y-40267677D01*
X13498376Y-40369482D01*
X13472231Y-40465105D01*
X13464492Y-40483078D01*
X13420876Y-40564800D01*
X13370791Y-40635661D01*
X13323738Y-40683700D01*
X13294016Y-40697675D01*
X13275459Y-40685192D01*
X13284852Y-40644948D01*
X13323563Y-40572752D01*
X13347325Y-40534364D01*
X13400361Y-40430850D01*
X13420230Y-40332588D01*
X13420877Y-40308519D01*
X13411609Y-40234609D01*
X13386045Y-40125870D01*
X13347549Y-39992394D01*
X13299483Y-39844276D01*
X13245208Y-39691607D01*
X13188088Y-39544480D01*
X13131484Y-39412989D01*
X13102086Y-39351579D01*
X13043622Y-39235126D01*
X12979495Y-39107401D01*
X12923393Y-38995669D01*
X12922413Y-38993718D01*
X12872735Y-38876513D01*
X12818231Y-38713974D01*
X12759963Y-38509448D01*
X12723777Y-38368525D01*
X12687624Y-38222959D01*
X12654732Y-38090971D01*
X12627225Y-37981056D01*
X12607229Y-37901709D01*
X12596870Y-37861423D01*
X12596845Y-37861331D01*
X12559853Y-37811416D01*
X12487406Y-37776781D01*
X12391075Y-37758812D01*
X12282431Y-37758896D01*
X12173044Y-37778419D01*
X12106219Y-37802554D01*
X12046997Y-37832751D01*
X12014634Y-37865214D01*
X11997974Y-37916788D01*
X11988872Y-37979767D01*
X11985949Y-38197273D01*
X12029733Y-38427179D01*
X12120336Y-38669803D01*
X12257867Y-38925464D01*
X12382518Y-39112910D01*
X12459700Y-39220974D01*
X12570067Y-39195719D01*
X12654450Y-39183173D01*
X12717328Y-39186538D01*
X12749244Y-39204169D01*
X12746756Y-39226460D01*
X12713811Y-39243719D01*
X12655334Y-39251275D01*
X12653262Y-39251287D01*
X12520264Y-39265132D01*
X12424646Y-39307327D01*
X12362569Y-39379659D01*
X12357917Y-39388914D01*
X12328672Y-39441331D01*
X12306618Y-39465277D01*
X12302299Y-39464683D01*
X12302157Y-39435686D01*
X12316471Y-39400354D01*
X12330402Y-39357634D01*
X12307025Y-39344302D01*
X12288863Y-39345678D01*
X12259163Y-39348765D01*
X12191238Y-39355402D01*
X12095685Y-39364563D01*
X12000378Y-39373595D01*
X11775631Y-39404642D01*
X11596495Y-39451034D01*
X11463372Y-39512647D01*
X11400721Y-39561777D01*
X11364388Y-39605070D01*
X11345056Y-39653362D01*
X11337683Y-39723807D01*
X11336900Y-39778994D01*
X11333014Y-39873377D01*
X11320270Y-39926927D01*
X11301409Y-39946010D01*
X11266072Y-39983372D01*
X11239570Y-40057913D01*
X11224134Y-40158224D01*
X11221993Y-40272896D01*
X11226367Y-40329915D01*
X11235568Y-40435253D01*
X11243384Y-40563354D01*
X11248235Y-40687947D01*
X11248463Y-40697675D01*
X11264535Y-40895100D01*
X11302963Y-41051497D01*
X11352647Y-41150573D01*
X11372552Y-41203520D01*
X11384448Y-41281559D01*
X11385935Y-41319195D01*
X11389441Y-41384801D01*
X11404150Y-41440850D01*
X11436347Y-41501980D01*
X11492315Y-41582826D01*
X11508658Y-41605002D01*
X11571157Y-41686973D01*
X11619145Y-41739008D01*
X11666432Y-41771201D01*
X11726828Y-41793643D01*
X11789517Y-41810269D01*
X11884409Y-41831238D01*
X11971384Y-41845633D01*
X12022908Y-41849992D01*
X12091104Y-41836714D01*
X12187631Y-41800663D01*
X12300882Y-41747508D01*
X12419246Y-41682920D01*
X12531116Y-41612572D01*
X12579597Y-41578050D01*
X12651493Y-41520427D01*
X12692746Y-41472871D01*
X12714345Y-41419542D01*
X12723632Y-41370443D01*
X12731477Y-41294563D01*
X12723579Y-41246970D01*
X12693602Y-41225567D01*
X12635211Y-41228256D01*
X12542072Y-41252940D01*
X12454880Y-41281481D01*
X12244929Y-41339520D01*
X12064061Y-41361009D01*
X11908758Y-41346026D01*
X11778213Y-41296164D01*
X11667885Y-41234900D01*
X11802730Y-41254276D01*
X12029277Y-41272120D01*
X12235395Y-41255071D01*
X12436636Y-41201547D01*
X12479968Y-41185433D01*
X12685356Y-41105540D01*
X12685356Y-40905199D01*
X12685356Y-40704858D01*
X12557426Y-40738043D01*
X12466184Y-40754884D01*
X12351244Y-40766827D01*
X12240552Y-40771227D01*
X12131810Y-40765628D01*
X12005748Y-40750495D01*
X11874882Y-40728323D01*
X11751730Y-40701608D01*
X11648807Y-40672847D01*
X11578631Y-40644535D01*
X11566180Y-40636755D01*
X11532581Y-40603965D01*
X11542832Y-40587981D01*
X11594671Y-40588928D01*
X11685840Y-40606932D01*
X11758722Y-40626043D01*
X11886609Y-40654099D01*
X12032490Y-40673720D01*
X12184547Y-40684607D01*
X12330965Y-40686462D01*
X12459926Y-40678983D01*
X12559614Y-40661874D01*
X12599545Y-40647328D01*
X12641729Y-40622539D01*
X12662557Y-40593193D01*
X12668044Y-40543629D01*
X12665270Y-40476162D01*
X12652795Y-40381157D01*
X12629948Y-40291238D01*
X12616235Y-40256362D01*
X12590209Y-40207383D01*
X12562549Y-40182713D01*
X12517430Y-40175318D01*
X12440182Y-40178097D01*
X12330125Y-40178518D01*
X12190223Y-40170874D01*
X12036670Y-40156868D01*
X11885660Y-40138203D01*
X11753386Y-40116583D01*
X11666071Y-40096672D01*
X11583193Y-40065686D01*
X11516981Y-40027454D01*
X11476968Y-39989102D01*
X11472686Y-39957757D01*
X11475566Y-39954248D01*
X11505659Y-39952273D01*
X11518525Y-39960049D01*
X11569519Y-39984820D01*
X11658113Y-40011206D01*
X11772992Y-40037346D01*
X11902846Y-40061380D01*
X12036362Y-40081445D01*
X12162226Y-40095682D01*
X12269127Y-40102230D01*
X12345752Y-40099227D01*
X12354929Y-40097638D01*
X12447350Y-40078908D01*
X12502175Y-40062490D01*
X12529065Y-40037620D01*
X12537685Y-39993533D01*
X12537695Y-39919464D01*
X12537481Y-39894264D01*
X12535121Y-39803515D01*
X12526221Y-39747412D01*
X12506474Y-39711615D01*
X12474217Y-39683702D01*
X12417060Y-39657243D01*
X12320615Y-39629602D01*
X12194481Y-39603385D01*
X12150132Y-39595837D01*
X11888541Y-39553507D01*
X12011128Y-39533358D01*
X12142449Y-39525220D01*
X12280937Y-39538784D01*
X12409323Y-39570867D01*
X12510339Y-39618286D01*
X12523852Y-39627875D01*
X12588677Y-39700203D01*
X12621099Y-39796990D01*
X12622673Y-39924524D01*
X12613903Y-39992552D01*
X12605518Y-40069848D01*
X12613648Y-40116767D01*
X12636483Y-40146181D01*
X12679544Y-40211035D01*
X12716107Y-40319163D01*
X12744388Y-40465030D01*
X12748249Y-40493219D01*
X12759849Y-40567660D01*
X12777688Y-40608404D01*
X12813750Y-40630450D01*
X12870702Y-40646452D01*
X12961590Y-40666382D01*
X13024559Y-40667052D01*
X13078521Y-40643742D01*
X13142384Y-40591736D01*
X13162044Y-40573762D01*
X13222411Y-40524409D01*
X13254019Y-40511580D01*
X13256458Y-40531789D01*
X13229323Y-40581554D01*
X13172205Y-40657391D01*
X13171870Y-40657798D01*
X13106351Y-40718890D01*
X13032932Y-40745053D01*
X12940639Y-40738011D01*
X12844719Y-40709227D01*
X12784148Y-40687515D01*
X12748191Y-40674837D01*
X12744181Y-40673527D01*
X12746261Y-40695165D01*
X12754243Y-40751189D01*
X12762004Y-40801517D01*
X12770301Y-40906520D01*
X12767078Y-41018113D01*
X12762702Y-41054818D01*
X12754764Y-41136425D01*
X12756533Y-41204005D01*
X12761544Y-41226797D01*
X12773140Y-41279513D01*
X12780574Y-41356680D01*
X12781702Y-41389111D01*
X12778159Y-41464013D01*
X12758250Y-41517944D01*
X12712212Y-41573176D01*
X12692461Y-41592732D01*
X12656584Y-41627419D01*
X12634377Y-41650843D01*
X12630650Y-41661814D01*
X12650215Y-41659141D01*
X12697883Y-41641637D01*
X12778465Y-41608109D01*
X12896774Y-41557370D01*
X12979564Y-41521740D01*
X13082203Y-41475136D01*
X13166251Y-41432285D01*
X13222449Y-41398225D01*
X13241568Y-41379218D01*
X13247314Y-41337362D01*
X13256730Y-41267110D01*
X13262079Y-41226787D01*
X13277163Y-41158816D01*
X13295099Y-41136905D01*
X13311316Y-41158643D01*
X13321243Y-41221622D01*
X13322432Y-41258604D01*
X13322807Y-41341444D01*
X13445394Y-41325182D01*
X13523333Y-41319350D01*
X13563830Y-41326563D01*
X13567981Y-41333420D01*
X13546268Y-41366507D01*
X13492244Y-41394009D01*
X13422587Y-41408138D01*
X13406804Y-41408679D01*
X13347283Y-41420544D01*
X13313252Y-41442941D01*
X13278659Y-41467079D01*
X13206284Y-41504625D01*
X13104399Y-41552153D01*
X12981276Y-41606235D01*
X12845186Y-41663447D01*
X12704402Y-41720361D01*
X12567195Y-41773550D01*
X12441838Y-41819589D01*
X12336603Y-41855051D01*
X12275853Y-41872647D01*
X12163469Y-41900038D01*
X12078973Y-41914912D01*
X12004089Y-41917753D01*
X11920544Y-41909041D01*
X11810064Y-41889259D01*
X11790472Y-41885452D01*
X11693142Y-41863350D01*
X11627447Y-41837720D01*
X11576245Y-41800002D01*
X11537477Y-41759128D01*
X11428454Y-41624273D01*
X11357077Y-41509802D01*
X11319903Y-41409337D01*
X11312383Y-41342206D01*
X11300966Y-41249428D01*
X11272833Y-41158344D01*
X11266186Y-41144141D01*
X11216591Y-41012702D01*
X11182804Y-40852623D01*
X11168454Y-40682759D01*
X11168407Y-40636382D01*
X11169096Y-40536717D01*
X11168273Y-40413764D01*
X11166119Y-40293238D01*
X11165965Y-40287180D01*
X11166003Y-40171211D01*
X11174923Y-40086834D01*
X11195273Y-40017018D01*
X11212043Y-39979101D01*
X11243804Y-39895398D01*
X11261898Y-39812668D01*
X11263485Y-39788921D01*
X11278638Y-39648893D01*
X11325064Y-39543300D01*
X11404632Y-39467304D01*
X11478899Y-39422156D01*
X11551260Y-39387097D01*
X11631379Y-39359526D01*
X11728918Y-39336845D01*
X11853542Y-39316455D01*
X12014912Y-39295758D01*
X12063715Y-39290048D01*
X12175864Y-39276011D01*
X12269341Y-39262272D01*
X12333820Y-39250484D01*
X12358614Y-39242821D01*
X12353888Y-39216413D01*
X12326869Y-39162187D01*
X12287707Y-39098568D01*
X12180764Y-38932917D01*
X12099946Y-38796176D01*
X12040743Y-38678970D01*
X11998639Y-38571924D01*
X11969124Y-38465664D01*
X11958623Y-38414954D01*
X11931417Y-38205110D01*
X11935815Y-38031489D01*
X11971721Y-37894506D01*
X12039039Y-37794574D01*
X12114247Y-37742157D01*
X12208665Y-37711074D01*
X12318849Y-37695728D01*
X12429194Y-37696082D01*
G37*
G36*
X12041217Y-41476739D02*
G01*
X12036868Y-41502896D01*
X12041408Y-41556320D01*
X12071189Y-41609941D01*
X12100312Y-41656641D01*
X12105154Y-41686301D01*
X12104308Y-41687346D01*
X12061997Y-41703159D01*
X12020370Y-41676861D01*
X11997535Y-41635465D01*
X11976297Y-41576909D01*
X11963282Y-41540383D01*
X11970794Y-41500915D01*
X12003812Y-41466230D01*
X12029942Y-41457714D01*
X12041217Y-41476739D01*
G37*
G36*
X11910806Y-40867928D02*
G01*
X11910466Y-40868284D01*
X11897349Y-40902301D01*
X11901664Y-40965398D01*
X11916212Y-41036156D01*
X11936965Y-41126342D01*
X11946279Y-41178951D01*
X11944058Y-41204109D01*
X11930207Y-41211942D01*
X11914561Y-41212540D01*
X11886119Y-41188902D01*
X11866174Y-41120616D01*
X11864257Y-41108341D01*
X11849356Y-40995178D01*
X11844372Y-40921385D01*
X11850134Y-40878147D01*
X11867468Y-40856647D01*
X11888541Y-40849490D01*
X11920687Y-40848310D01*
X11910806Y-40867928D01*
G37*
G36*
X11844984Y-40238922D02*
G01*
X11858166Y-40289932D01*
X11861854Y-40379068D01*
X11859044Y-40470932D01*
X11851966Y-40521743D01*
X11837568Y-40539465D01*
X11812796Y-40532066D01*
X11804984Y-40527446D01*
X11786356Y-40500919D01*
X11782069Y-40446617D01*
X11789070Y-40369417D01*
X11806285Y-40278114D01*
X11826307Y-40234799D01*
X11844984Y-40238922D01*
G37*
G36*
X11815276Y-39652404D02*
G01*
X11843149Y-39672061D01*
X11828156Y-39703612D01*
X11826645Y-39705447D01*
X11807322Y-39763875D01*
X11810470Y-39864520D01*
X11815994Y-39941592D01*
X11808245Y-39979306D01*
X11793403Y-39986671D01*
X11752154Y-39975396D01*
X11745523Y-39970326D01*
X11734690Y-39935009D01*
X11730083Y-39869385D01*
X11731332Y-39791737D01*
X11738066Y-39720348D01*
X11749917Y-39673499D01*
X11751596Y-39670502D01*
X11790407Y-39648466D01*
X11815276Y-39652404D01*
G37*
G36*
X12569208Y-38753453D02*
G01*
X12586640Y-38768550D01*
X12587286Y-38774234D01*
X12565978Y-38801408D01*
X12513033Y-38827531D01*
X12495346Y-38833066D01*
X12417811Y-38852528D01*
X12369115Y-38855991D01*
X12331466Y-38842621D01*
X12303932Y-38824101D01*
X12273963Y-38798238D01*
X12272978Y-38780830D01*
X12306703Y-38768801D01*
X12380861Y-38759075D01*
X12434053Y-38754187D01*
X12521323Y-38749055D01*
X12569208Y-38753453D01*
G37*
%TO.C,D2*%
D12*
X51455000Y-25000000D02*
G75*
G02*
X46455000Y-25000000I-2500000J0D01*
G01*
X46455000Y-25000000D02*
G75*
G02*
X51455000Y-25000000I2500000J0D01*
G01*
X45965000Y-25000000D02*
G75*
G02*
X51515000Y-23455170I2990000J0D01*
G01*
X51515000Y-26544830D02*
G75*
G02*
X45965000Y-25000000I-2560000J1544830D01*
G01*
X51515000Y-26545000D02*
X51515000Y-23455000D01*
%TO.C,D3*%
X51515000Y-39545000D02*
X51515000Y-36455000D01*
X51515000Y-39544830D02*
G75*
G02*
X45965000Y-38000000I-2560000J1544830D01*
G01*
X45965000Y-38000000D02*
G75*
G02*
X51515000Y-36455170I2990000J0D01*
G01*
X51455000Y-38000000D02*
G75*
G02*
X46455000Y-38000000I-2500000J0D01*
G01*
X46455000Y-38000000D02*
G75*
G02*
X51455000Y-38000000I2500000J0D01*
G01*
%TO.C,D1*%
X51455000Y-10000000D02*
G75*
G02*
X46455000Y-10000000I-2500000J0D01*
G01*
X46455000Y-10000000D02*
G75*
G02*
X51455000Y-10000000I2500000J0D01*
G01*
X45965000Y-10000000D02*
G75*
G02*
X51515000Y-8455170I2990000J0D01*
G01*
X51515000Y-11544830D02*
G75*
G02*
X45965000Y-10000000I-2560000J1544830D01*
G01*
X51515000Y-11545000D02*
X51515000Y-8455000D01*
%TO.C,R3*%
X40245276Y-37477500D02*
X40754724Y-37477500D01*
X40245276Y-38522500D02*
X40754724Y-38522500D01*
%TO.C,J1*%
X1500000Y-29600000D02*
X1500000Y-20400000D01*
X16500000Y-20100000D02*
X15200000Y-20100000D01*
X16200000Y-20400000D02*
X16200000Y-22400000D01*
X1500000Y-20400000D02*
X16200000Y-20400000D01*
X16500000Y-21800000D02*
X16500000Y-20100000D01*
X16200000Y-27600000D02*
X16200000Y-29600000D01*
X16200000Y-29600000D02*
X14900000Y-29600000D01*
X10300000Y-29600000D02*
X1500000Y-29600000D01*
%TO.C,SW3*%
X30750000Y-38500000D02*
X30750000Y-37000000D01*
X29500000Y-34500000D02*
X25000000Y-34500000D01*
X25000000Y-41000000D02*
X29500000Y-41000000D01*
X23750000Y-37000000D02*
X23750000Y-38500000D01*
%TO.C,SW1*%
X23750000Y-9500000D02*
X23750000Y-11000000D01*
X25000000Y-13500000D02*
X29500000Y-13500000D01*
X29500000Y-7000000D02*
X25000000Y-7000000D01*
X30750000Y-11000000D02*
X30750000Y-9500000D01*
%TO.C,SW2*%
X30750000Y-24500000D02*
X30750000Y-23000000D01*
X29500000Y-20500000D02*
X25000000Y-20500000D01*
X25000000Y-27000000D02*
X29500000Y-27000000D01*
X23750000Y-23000000D02*
X23750000Y-24500000D01*
%TO.C,R2*%
X39772936Y-25735000D02*
X40227064Y-25735000D01*
X39772936Y-24265000D02*
X40227064Y-24265000D01*
%TO.C,R1*%
X38080000Y-10920000D02*
X41920000Y-10920000D01*
X38080000Y-9080000D02*
X41920000Y-9080000D01*
%TD*%
M02*
