%TF.GenerationSoftware,KiCad,Pcbnew,10.0.4*%
%TF.CreationDate,2026-06-24T20:40:02+09:00*%
%TF.ProjectId,kicadpractice,6b696361-6470-4726-9163-746963652e6b,rev?*%
%TF.SameCoordinates,Original*%
%TF.FileFunction,Drillmap*%
%TF.FilePolarity,Positive*%
%FSLAX45Y45*%
G04 Gerber Fmt 4.5, Leading zero omitted, Abs format (unit mm)*
G04 Created by KiCad (PCBNEW 10.0.4) date 2026-06-24 20:40:02*
%MOMM*%
%LPD*%
G01*
G04 APERTURE LIST*
%ADD10C,0.050000*%
%ADD11C,0.200000*%
G04 APERTURE END LIST*
D10*
X200000Y-5000000D02*
G75*
G02*
X0Y-4800000I0J200000D01*
G01*
X6000000Y-4800000D02*
G75*
G02*
X5800000Y-5000000I-200000J0D01*
G01*
X0Y-200000D02*
G75*
G02*
X200000Y0I200000J0D01*
G01*
X5800000Y0D02*
G75*
G02*
X6000000Y-200000I0J-200000D01*
G01*
X0Y-4800000D02*
X0Y-200000D01*
X6000000Y-200000D02*
X6000000Y-4800000D01*
X5800000Y-5000000D02*
X200000Y-5000000D01*
X200000Y0D02*
X5800000Y0D01*
D11*
X258277Y-5313984D02*
X258277Y-5113984D01*
X258277Y-5113984D02*
X305896Y-5113984D01*
X305896Y-5113984D02*
X334467Y-5123508D01*
X334467Y-5123508D02*
X353515Y-5142555D01*
X353515Y-5142555D02*
X363039Y-5161603D01*
X363039Y-5161603D02*
X372562Y-5199698D01*
X372562Y-5199698D02*
X372562Y-5228270D01*
X372562Y-5228270D02*
X363039Y-5266365D01*
X363039Y-5266365D02*
X353515Y-5285412D01*
X353515Y-5285412D02*
X334467Y-5304460D01*
X334467Y-5304460D02*
X305896Y-5313984D01*
X305896Y-5313984D02*
X258277Y-5313984D01*
X458277Y-5313984D02*
X458277Y-5180650D01*
X458277Y-5218746D02*
X467801Y-5199698D01*
X467801Y-5199698D02*
X477324Y-5190174D01*
X477324Y-5190174D02*
X496372Y-5180650D01*
X496372Y-5180650D02*
X515420Y-5180650D01*
X582086Y-5313984D02*
X582086Y-5180650D01*
X582086Y-5113984D02*
X572563Y-5123508D01*
X572563Y-5123508D02*
X582086Y-5133031D01*
X582086Y-5133031D02*
X591610Y-5123508D01*
X591610Y-5123508D02*
X582086Y-5113984D01*
X582086Y-5113984D02*
X582086Y-5133031D01*
X705896Y-5313984D02*
X686848Y-5304460D01*
X686848Y-5304460D02*
X677324Y-5285412D01*
X677324Y-5285412D02*
X677324Y-5113984D01*
X810658Y-5313984D02*
X791610Y-5304460D01*
X791610Y-5304460D02*
X782086Y-5285412D01*
X782086Y-5285412D02*
X782086Y-5113984D01*
X1039229Y-5313984D02*
X1039229Y-5113984D01*
X1039229Y-5113984D02*
X1105896Y-5256841D01*
X1105896Y-5256841D02*
X1172563Y-5113984D01*
X1172563Y-5113984D02*
X1172563Y-5313984D01*
X1353515Y-5313984D02*
X1353515Y-5209222D01*
X1353515Y-5209222D02*
X1343991Y-5190174D01*
X1343991Y-5190174D02*
X1324944Y-5180650D01*
X1324944Y-5180650D02*
X1286848Y-5180650D01*
X1286848Y-5180650D02*
X1267801Y-5190174D01*
X1353515Y-5304460D02*
X1334467Y-5313984D01*
X1334467Y-5313984D02*
X1286848Y-5313984D01*
X1286848Y-5313984D02*
X1267801Y-5304460D01*
X1267801Y-5304460D02*
X1258277Y-5285412D01*
X1258277Y-5285412D02*
X1258277Y-5266365D01*
X1258277Y-5266365D02*
X1267801Y-5247317D01*
X1267801Y-5247317D02*
X1286848Y-5237793D01*
X1286848Y-5237793D02*
X1334467Y-5237793D01*
X1334467Y-5237793D02*
X1353515Y-5228270D01*
X1448753Y-5180650D02*
X1448753Y-5380650D01*
X1448753Y-5190174D02*
X1467801Y-5180650D01*
X1467801Y-5180650D02*
X1505896Y-5180650D01*
X1505896Y-5180650D02*
X1524943Y-5190174D01*
X1524943Y-5190174D02*
X1534467Y-5199698D01*
X1534467Y-5199698D02*
X1543991Y-5218746D01*
X1543991Y-5218746D02*
X1543991Y-5275889D01*
X1543991Y-5275889D02*
X1534467Y-5294936D01*
X1534467Y-5294936D02*
X1524943Y-5304460D01*
X1524943Y-5304460D02*
X1505896Y-5313984D01*
X1505896Y-5313984D02*
X1467801Y-5313984D01*
X1467801Y-5313984D02*
X1448753Y-5304460D01*
X1629705Y-5294936D02*
X1639229Y-5304460D01*
X1639229Y-5304460D02*
X1629705Y-5313984D01*
X1629705Y-5313984D02*
X1620182Y-5304460D01*
X1620182Y-5304460D02*
X1629705Y-5294936D01*
X1629705Y-5294936D02*
X1629705Y-5313984D01*
X1629705Y-5190174D02*
X1639229Y-5199698D01*
X1639229Y-5199698D02*
X1629705Y-5209222D01*
X1629705Y-5209222D02*
X1620182Y-5199698D01*
X1620182Y-5199698D02*
X1629705Y-5190174D01*
X1629705Y-5190174D02*
X1629705Y-5209222D01*
M02*
