%TF.GenerationSoftware,KiCad,Pcbnew,10.0.4*%
%TF.CreationDate,2026-06-24T20:40:17+09:00*%
%TF.ProjectId,kicadpractice,6b696361-6470-4726-9163-746963652e6b,rev?*%
%TF.SameCoordinates,Original*%
%TF.FileFunction,Copper,L1,Top*%
%TF.FilePolarity,Positive*%
%FSLAX46Y46*%
G04 Gerber Fmt 4.6, Leading zero omitted, Abs format (unit mm)*
G04 Created by KiCad (PCBNEW 10.0.4) date 2026-06-24 20:40:17*
%MOMM*%
%LPD*%
G01*
G04 APERTURE LIST*
G04 Aperture macros list*
%AMRoundRect*
0 Rectangle with rounded corners*
0 $1 Rounding radius*
0 $2 $3 $4 $5 $6 $7 $8 $9 X,Y pos of 4 corners*
0 Add a 4 corners polygon primitive as box body*
4,1,4,$2,$3,$4,$5,$6,$7,$8,$9,$2,$3,0*
0 Add four circle primitives for the rounded corners*
1,1,$1+$1,$2,$3*
1,1,$1+$1,$4,$5*
1,1,$1+$1,$6,$7*
1,1,$1+$1,$8,$9*
0 Add four rect primitives between the rounded corners*
20,1,$1+$1,$2,$3,$4,$5,0*
20,1,$1+$1,$4,$5,$6,$7,0*
20,1,$1+$1,$6,$7,$8,$9,0*
20,1,$1+$1,$8,$9,$2,$3,0*%
G04 Aperture macros list end*
%TA.AperFunction,ComponentPad*%
%ADD10C,1.800000*%
%TD*%
%TA.AperFunction,ComponentPad*%
%ADD11R,1.800000X1.800000*%
%TD*%
%TA.AperFunction,SMDPad,CuDef*%
%ADD12RoundRect,0.237500X-0.250000X-0.237500X0.250000X-0.237500X0.250000X0.237500X-0.250000X0.237500X0*%
%TD*%
%TA.AperFunction,ComponentPad*%
%ADD13R,2.000000X4.600000*%
%TD*%
%TA.AperFunction,ComponentPad*%
%ADD14O,2.000000X4.200000*%
%TD*%
%TA.AperFunction,ComponentPad*%
%ADD15O,4.200000X2.000000*%
%TD*%
%TA.AperFunction,ComponentPad*%
%ADD16C,2.000000*%
%TD*%
%TA.AperFunction,ComponentPad*%
%ADD17C,5.500000*%
%TD*%
%TA.AperFunction,SMDPad,CuDef*%
%ADD18RoundRect,0.250000X-0.350000X-0.450000X0.350000X-0.450000X0.350000X0.450000X-0.350000X0.450000X0*%
%TD*%
%TA.AperFunction,ComponentPad*%
%ADD19C,1.400000*%
%TD*%
%TA.AperFunction,ViaPad*%
%ADD20C,1.000000*%
%TD*%
%TA.AperFunction,Conductor*%
%ADD21C,0.500000*%
%TD*%
G04 APERTURE END LIST*
D10*
%TO.P,D2,2,A_2*%
%TO.N,Net-(D2-A)*%
X47685000Y-25000000D03*
D11*
%TO.P,D2,1,K_1*%
%TO.N,GND*%
X50225000Y-25000000D03*
%TD*%
%TO.P,D3,1,K_1*%
%TO.N,GND*%
X50225000Y-38000000D03*
D10*
%TO.P,D3,2,A_2*%
%TO.N,Net-(D3-A)*%
X47685000Y-38000000D03*
%TD*%
%TO.P,D1,2,A_2*%
%TO.N,Net-(D1-A)*%
X47685000Y-10000000D03*
D11*
%TO.P,D1,1,K_1*%
%TO.N,GND*%
X50225000Y-10000000D03*
%TD*%
D12*
%TO.P,R3,1*%
%TO.N,Net-(SW3-B)*%
X39587500Y-38000000D03*
%TO.P,R3,2*%
%TO.N,Net-(D3-A)*%
X41412500Y-38000000D03*
%TD*%
D13*
%TO.P,J1,1*%
%TO.N,VCC*%
X15500000Y-25000000D03*
D14*
%TO.P,J1,2*%
%TO.N,GND*%
X9300000Y-25000000D03*
D15*
X12600000Y-29700000D03*
%TD*%
D16*
%TO.P,SW3,2,B_2*%
%TO.N,Net-(SW3-B)*%
X30500000Y-40000000D03*
X24000000Y-40000000D03*
%TO.P,SW3,1,A_1*%
%TO.N,VCC*%
X30500000Y-35500000D03*
X24000000Y-35500000D03*
%TD*%
%TO.P,SW1,1,A_1*%
%TO.N,VCC*%
X24000000Y-8000000D03*
X30500000Y-8000000D03*
%TO.P,SW1,2,B_2*%
%TO.N,Net-(SW1-B)*%
X24000000Y-12500000D03*
X30500000Y-12500000D03*
%TD*%
%TO.P,SW2,2,B_2*%
%TO.N,Net-(SW2-B)*%
X30500000Y-26000000D03*
X24000000Y-26000000D03*
%TO.P,SW2,1,A_1*%
%TO.N,VCC*%
X30500000Y-21500000D03*
X24000000Y-21500000D03*
%TD*%
D17*
%TO.P,H4,1,1_1*%
%TO.N,unconnected-(H4-Pad1)*%
X5000000Y-45000000D03*
%TD*%
%TO.P,H3,1,1_1*%
%TO.N,unconnected-(H3-Pad1)*%
X55000000Y-45000000D03*
%TD*%
%TO.P,H2,1,1_1*%
%TO.N,unconnected-(H2-Pad1)*%
X55000000Y-5000000D03*
%TD*%
%TO.P,H1,1,1_1*%
%TO.N,unconnected-(H1-Pad1)*%
X5000000Y-5000000D03*
%TD*%
D18*
%TO.P,R2,2*%
%TO.N,Net-(D2-A)*%
X41000000Y-25000000D03*
%TO.P,R2,1*%
%TO.N,Net-(SW2-B)*%
X39000000Y-25000000D03*
%TD*%
D19*
%TO.P,R1,2*%
%TO.N,Net-(D1-A)*%
X42540000Y-10000000D03*
%TO.P,R1,1*%
%TO.N,Net-(SW1-B)*%
X37460000Y-10000000D03*
%TD*%
D20*
%TO.N,GND*%
X21000000Y-30000000D03*
X27000000Y-30000000D03*
X33000000Y-30000000D03*
X39000000Y-30000000D03*
X45000000Y-30000000D03*
X51000000Y-30000000D03*
X51000000Y-20000000D03*
X45000000Y-20000000D03*
X39000000Y-20000000D03*
X21000000Y-15000000D03*
X27000000Y-15000000D03*
X33000000Y-15000000D03*
X39000000Y-15000000D03*
X45000000Y-15000000D03*
X51000000Y-15000000D03*
X5000000Y-13000000D03*
X5000000Y-18000000D03*
X10000000Y-18000000D03*
X10000000Y-13000000D03*
X10000000Y-8000000D03*
X15000000Y-37000000D03*
X15000000Y-32000000D03*
X10000000Y-32000000D03*
X5000000Y-32000000D03*
X5000000Y-37000000D03*
X10000000Y-37000000D03*
X45000000Y-42000000D03*
X35000000Y-42000000D03*
X30000000Y-42000000D03*
X40000000Y-42000000D03*
X25000000Y-42000000D03*
X15000000Y-42000000D03*
X10000000Y-42000000D03*
X20000000Y-42000000D03*
X57000000Y-20000000D03*
X57000000Y-25000000D03*
X57000000Y-15000000D03*
X57000000Y-30000000D03*
X57000000Y-35000000D03*
X57000000Y-40000000D03*
X50000000Y-47000000D03*
X30000000Y-47000000D03*
X35000000Y-47000000D03*
X40000000Y-47000000D03*
X45000000Y-47000000D03*
X10000000Y-47000000D03*
X15000000Y-47000000D03*
X20000000Y-47000000D03*
X25000000Y-47000000D03*
X30000000Y-3000000D03*
X35000000Y-3000000D03*
X40000000Y-3000000D03*
X45000000Y-3000000D03*
X25000000Y-3000000D03*
X20000000Y-3000000D03*
X15000000Y-3000000D03*
X10000000Y-3000000D03*
%TD*%
%TO.N,Net-(D1-A)*%
D21*
X42540000Y-10000000D02*
X47685000Y-10000000D01*
%TO.N,Net-(D2-A)*%
X41000000Y-25000000D02*
X47685000Y-25000000D01*
%TO.N,Net-(D3-A)*%
X41412500Y-38000000D02*
X47685000Y-38000000D01*
%TO.N,Net-(SW3-B)*%
X38000000Y-38000000D02*
X39587500Y-38000000D01*
X36000000Y-40000000D02*
X38000000Y-38000000D01*
X30500000Y-40000000D02*
X36000000Y-40000000D01*
%TO.N,Net-(SW2-B)*%
X37000000Y-25000000D02*
X39000000Y-25000000D01*
X36000000Y-26000000D02*
X37000000Y-25000000D01*
X30500000Y-26000000D02*
X36000000Y-26000000D01*
%TO.N,Net-(SW1-B)*%
X34960000Y-12500000D02*
X37460000Y-10000000D01*
X30500000Y-12500000D02*
X34960000Y-12500000D01*
%TO.N,Net-(SW3-B)*%
X24000000Y-40000000D02*
X30500000Y-40000000D01*
%TO.N,Net-(SW2-B)*%
X24000000Y-26000000D02*
X30500000Y-26000000D01*
%TO.N,Net-(SW1-B)*%
X24000000Y-12500000D02*
X30500000Y-12500000D01*
%TD*%
%TA.AperFunction,Conductor*%
%TO.N,VCC*%
G36*
X34015677Y-5019685D02*
G01*
X34036319Y-5036319D01*
X35963681Y-6963681D01*
X35997166Y-7025004D01*
X36000000Y-7051362D01*
X36000000Y-8948638D01*
X35980315Y-9015677D01*
X35963681Y-9036319D01*
X34036319Y-10963681D01*
X33974996Y-10997166D01*
X33948638Y-11000000D01*
X30629321Y-11000000D01*
X30619598Y-10999618D01*
X30618098Y-10999500D01*
X30618092Y-10999500D01*
X30381908Y-10999500D01*
X30381902Y-10999500D01*
X30380402Y-10999618D01*
X30370679Y-11000000D01*
X24129321Y-11000000D01*
X24119598Y-10999618D01*
X24118098Y-10999500D01*
X24118092Y-10999500D01*
X23881908Y-10999500D01*
X23881902Y-10999500D01*
X23880402Y-10999618D01*
X23870679Y-11000000D01*
X19999999Y-11000000D01*
X18000000Y-12999999D01*
X18000000Y-13000000D01*
X18000000Y-19000000D01*
X32948638Y-19000000D01*
X33015677Y-19019685D01*
X33036319Y-19036319D01*
X34963681Y-20963681D01*
X34997166Y-21025004D01*
X35000000Y-21051362D01*
X35000000Y-21948638D01*
X34980315Y-22015677D01*
X34963681Y-22036319D01*
X33036319Y-23963681D01*
X32974996Y-23997166D01*
X32948638Y-24000000D01*
X18000000Y-24000000D01*
X18000000Y-31000000D01*
X20000000Y-33000000D01*
X32948638Y-33000000D01*
X33015677Y-33019685D01*
X33036319Y-33036319D01*
X34963681Y-34963681D01*
X34997166Y-35025004D01*
X35000000Y-35051362D01*
X35000000Y-36948638D01*
X34980315Y-37015677D01*
X34963681Y-37036319D01*
X33036319Y-38963681D01*
X32974996Y-38997166D01*
X32948638Y-39000000D01*
X31673389Y-39000000D01*
X31606350Y-38980315D01*
X31585708Y-38963681D01*
X31477512Y-38855485D01*
X31477510Y-38855483D01*
X31286433Y-38716657D01*
X31075996Y-38609433D01*
X30851368Y-38536446D01*
X30618097Y-38499500D01*
X30618092Y-38499500D01*
X30381908Y-38499500D01*
X30381903Y-38499500D01*
X30148631Y-38536446D01*
X29924003Y-38609433D01*
X29713566Y-38716657D01*
X29604550Y-38795862D01*
X29522490Y-38855483D01*
X29522488Y-38855485D01*
X29522487Y-38855485D01*
X29414292Y-38963681D01*
X29352969Y-38997166D01*
X29326611Y-39000000D01*
X25173389Y-39000000D01*
X25106350Y-38980315D01*
X25085708Y-38963681D01*
X24977512Y-38855485D01*
X24977510Y-38855483D01*
X24786433Y-38716657D01*
X24575996Y-38609433D01*
X24351368Y-38536446D01*
X24118097Y-38499500D01*
X24118092Y-38499500D01*
X23881908Y-38499500D01*
X23881903Y-38499500D01*
X23648631Y-38536446D01*
X23424003Y-38609433D01*
X23213566Y-38716657D01*
X23104550Y-38795862D01*
X23022490Y-38855483D01*
X23022488Y-38855485D01*
X23022487Y-38855485D01*
X22914292Y-38963681D01*
X22852969Y-38997166D01*
X22826611Y-39000000D01*
X20051362Y-39000000D01*
X19984323Y-38980315D01*
X19963681Y-38963681D01*
X18036319Y-37036319D01*
X18002834Y-36974996D01*
X18000000Y-36948638D01*
X18000000Y-35381947D01*
X22500000Y-35381947D01*
X22500000Y-35618052D01*
X22536934Y-35851247D01*
X22609897Y-36075802D01*
X22717087Y-36286174D01*
X22777338Y-36369104D01*
X22777340Y-36369105D01*
X23476212Y-35670233D01*
X23487482Y-35712292D01*
X23559890Y-35837708D01*
X23662292Y-35940110D01*
X23787708Y-36012518D01*
X23829765Y-36023787D01*
X23130893Y-36722658D01*
X23213828Y-36782914D01*
X23424197Y-36890102D01*
X23648752Y-36963065D01*
X23648751Y-36963065D01*
X23881948Y-37000000D01*
X24118052Y-37000000D01*
X24351247Y-36963065D01*
X24575802Y-36890102D01*
X24786163Y-36782918D01*
X24786169Y-36782914D01*
X24869104Y-36722658D01*
X24869105Y-36722658D01*
X24170233Y-36023787D01*
X24212292Y-36012518D01*
X24337708Y-35940110D01*
X24440110Y-35837708D01*
X24512518Y-35712292D01*
X24523787Y-35670234D01*
X25222658Y-36369105D01*
X25222658Y-36369104D01*
X25282914Y-36286169D01*
X25282918Y-36286163D01*
X25390102Y-36075802D01*
X25463065Y-35851247D01*
X25500000Y-35618052D01*
X25500000Y-35381947D01*
X29000000Y-35381947D01*
X29000000Y-35618052D01*
X29036934Y-35851247D01*
X29109897Y-36075802D01*
X29217087Y-36286174D01*
X29277338Y-36369104D01*
X29277340Y-36369105D01*
X29976212Y-35670233D01*
X29987482Y-35712292D01*
X30059890Y-35837708D01*
X30162292Y-35940110D01*
X30287708Y-36012518D01*
X30329765Y-36023787D01*
X29630893Y-36722658D01*
X29713828Y-36782914D01*
X29924197Y-36890102D01*
X30148752Y-36963065D01*
X30148751Y-36963065D01*
X30381948Y-37000000D01*
X30618052Y-37000000D01*
X30851247Y-36963065D01*
X31075802Y-36890102D01*
X31286163Y-36782918D01*
X31286169Y-36782914D01*
X31369104Y-36722658D01*
X31369105Y-36722658D01*
X30670233Y-36023787D01*
X30712292Y-36012518D01*
X30837708Y-35940110D01*
X30940110Y-35837708D01*
X31012518Y-35712292D01*
X31023787Y-35670233D01*
X31722658Y-36369105D01*
X31722658Y-36369104D01*
X31782914Y-36286169D01*
X31782918Y-36286163D01*
X31890102Y-36075802D01*
X31963065Y-35851247D01*
X32000000Y-35618052D01*
X32000000Y-35381947D01*
X31963065Y-35148752D01*
X31890102Y-34924197D01*
X31782914Y-34713828D01*
X31722658Y-34630894D01*
X31722658Y-34630893D01*
X31023787Y-35329765D01*
X31012518Y-35287708D01*
X30940110Y-35162292D01*
X30837708Y-35059890D01*
X30712292Y-34987482D01*
X30670234Y-34976212D01*
X31369105Y-34277340D01*
X31369104Y-34277338D01*
X31286174Y-34217087D01*
X31075802Y-34109897D01*
X30851247Y-34036934D01*
X30851248Y-34036934D01*
X30618052Y-34000000D01*
X30381948Y-34000000D01*
X30148752Y-34036934D01*
X29924197Y-34109897D01*
X29713830Y-34217084D01*
X29630894Y-34277340D01*
X30329766Y-34976212D01*
X30287708Y-34987482D01*
X30162292Y-35059890D01*
X30059890Y-35162292D01*
X29987482Y-35287708D01*
X29976212Y-35329766D01*
X29277340Y-34630894D01*
X29217084Y-34713830D01*
X29109897Y-34924197D01*
X29036934Y-35148752D01*
X29000000Y-35381947D01*
X25500000Y-35381947D01*
X25463065Y-35148752D01*
X25390102Y-34924197D01*
X25282914Y-34713828D01*
X25222658Y-34630894D01*
X25222658Y-34630893D01*
X24523787Y-35329765D01*
X24512518Y-35287708D01*
X24440110Y-35162292D01*
X24337708Y-35059890D01*
X24212292Y-34987482D01*
X24170234Y-34976212D01*
X24869105Y-34277340D01*
X24869104Y-34277339D01*
X24786174Y-34217087D01*
X24575802Y-34109897D01*
X24351247Y-34036934D01*
X24351248Y-34036934D01*
X24118052Y-34000000D01*
X23881948Y-34000000D01*
X23648752Y-34036934D01*
X23424197Y-34109897D01*
X23213830Y-34217084D01*
X23130894Y-34277340D01*
X23829766Y-34976212D01*
X23787708Y-34987482D01*
X23662292Y-35059890D01*
X23559890Y-35162292D01*
X23487482Y-35287708D01*
X23476212Y-35329766D01*
X22777340Y-34630894D01*
X22717084Y-34713830D01*
X22609897Y-34924197D01*
X22536934Y-35148752D01*
X22500000Y-35381947D01*
X18000000Y-35381947D01*
X18000000Y-35000000D01*
X16036319Y-33036319D01*
X16002834Y-32974996D01*
X16000000Y-32948638D01*
X16000000Y-32101054D01*
X16000500Y-32098541D01*
X16000500Y-31901459D01*
X16000000Y-31898945D01*
X16000000Y-30000000D01*
X14498800Y-27998400D01*
X14474324Y-27932958D01*
X14489114Y-27864671D01*
X14538475Y-27815221D01*
X14598000Y-27800000D01*
X15250000Y-27800000D01*
X15250000Y-26733012D01*
X15307007Y-26765925D01*
X15434174Y-26800000D01*
X15565826Y-26800000D01*
X15692993Y-26765925D01*
X15750000Y-26733012D01*
X15750000Y-27800000D01*
X16547828Y-27800000D01*
X16547844Y-27799999D01*
X16607372Y-27793598D01*
X16607379Y-27793596D01*
X16742086Y-27743354D01*
X16742093Y-27743350D01*
X16857187Y-27657190D01*
X16857190Y-27657187D01*
X16943350Y-27542093D01*
X16943354Y-27542086D01*
X16993596Y-27407379D01*
X16993598Y-27407372D01*
X16999999Y-27347844D01*
X17000000Y-27347827D01*
X17000000Y-25250000D01*
X16000000Y-25250000D01*
X16000000Y-24750000D01*
X17000000Y-24750000D01*
X17000000Y-22652172D01*
X16999999Y-22652155D01*
X16993598Y-22592627D01*
X16993596Y-22592620D01*
X16943354Y-22457913D01*
X16943350Y-22457906D01*
X16857190Y-22342812D01*
X16857187Y-22342809D01*
X16742093Y-22256649D01*
X16742086Y-22256645D01*
X16607379Y-22206403D01*
X16607372Y-22206401D01*
X16547844Y-22200000D01*
X15750000Y-22200000D01*
X15750000Y-23266988D01*
X15692993Y-23234075D01*
X15565826Y-23200000D01*
X15434174Y-23200000D01*
X15307007Y-23234075D01*
X15250000Y-23266988D01*
X15250000Y-22200000D01*
X14452155Y-22200000D01*
X14392627Y-22206401D01*
X14392620Y-22206403D01*
X14257913Y-22256645D01*
X14257906Y-22256649D01*
X14142812Y-22342809D01*
X14142809Y-22342812D01*
X14056649Y-22457906D01*
X14056645Y-22457913D01*
X14006403Y-22592620D01*
X14006401Y-22592627D01*
X14000000Y-22652155D01*
X14000000Y-24750000D01*
X15000000Y-24750000D01*
X15000000Y-25250000D01*
X14000000Y-25250000D01*
X14000000Y-26961333D01*
X13980315Y-27028372D01*
X13927511Y-27074127D01*
X13858353Y-27084071D01*
X13794797Y-27055046D01*
X13776800Y-27035733D01*
X13024800Y-26033066D01*
X13000324Y-25967624D01*
X13000000Y-25958666D01*
X13000000Y-21381947D01*
X22500000Y-21381947D01*
X22500000Y-21618052D01*
X22536934Y-21851247D01*
X22609897Y-22075802D01*
X22717087Y-22286174D01*
X22777338Y-22369104D01*
X22777340Y-22369105D01*
X23476212Y-21670233D01*
X23487482Y-21712292D01*
X23559890Y-21837708D01*
X23662292Y-21940110D01*
X23787708Y-22012518D01*
X23829765Y-22023787D01*
X23130893Y-22722658D01*
X23213828Y-22782914D01*
X23424197Y-22890102D01*
X23648752Y-22963065D01*
X23648751Y-22963065D01*
X23881948Y-23000000D01*
X24118052Y-23000000D01*
X24351247Y-22963065D01*
X24575802Y-22890102D01*
X24786163Y-22782918D01*
X24786169Y-22782914D01*
X24869104Y-22722658D01*
X24869105Y-22722658D01*
X24170233Y-22023787D01*
X24212292Y-22012518D01*
X24337708Y-21940110D01*
X24440110Y-21837708D01*
X24512518Y-21712292D01*
X24523787Y-21670233D01*
X25222658Y-22369105D01*
X25222658Y-22369104D01*
X25282914Y-22286169D01*
X25282918Y-22286163D01*
X25390102Y-22075802D01*
X25463065Y-21851247D01*
X25500000Y-21618052D01*
X25500000Y-21381947D01*
X29000000Y-21381947D01*
X29000000Y-21618052D01*
X29036934Y-21851247D01*
X29109897Y-22075802D01*
X29217087Y-22286174D01*
X29277338Y-22369104D01*
X29277340Y-22369105D01*
X29976212Y-21670233D01*
X29987482Y-21712292D01*
X30059890Y-21837708D01*
X30162292Y-21940110D01*
X30287708Y-22012518D01*
X30329765Y-22023787D01*
X29630893Y-22722658D01*
X29713828Y-22782914D01*
X29924197Y-22890102D01*
X30148752Y-22963065D01*
X30148751Y-22963065D01*
X30381948Y-23000000D01*
X30618052Y-23000000D01*
X30851247Y-22963065D01*
X31075802Y-22890102D01*
X31286163Y-22782918D01*
X31286169Y-22782914D01*
X31369104Y-22722658D01*
X31369105Y-22722658D01*
X30670233Y-22023787D01*
X30712292Y-22012518D01*
X30837708Y-21940110D01*
X30940110Y-21837708D01*
X31012518Y-21712292D01*
X31023787Y-21670233D01*
X31722658Y-22369105D01*
X31722658Y-22369104D01*
X31782914Y-22286169D01*
X31782918Y-22286163D01*
X31890102Y-22075802D01*
X31963065Y-21851247D01*
X32000000Y-21618052D01*
X32000000Y-21381947D01*
X31963065Y-21148752D01*
X31890102Y-20924197D01*
X31782914Y-20713828D01*
X31722658Y-20630894D01*
X31722658Y-20630893D01*
X31023787Y-21329765D01*
X31012518Y-21287708D01*
X30940110Y-21162292D01*
X30837708Y-21059890D01*
X30712292Y-20987482D01*
X30670234Y-20976212D01*
X31369105Y-20277340D01*
X31369104Y-20277338D01*
X31286174Y-20217087D01*
X31075802Y-20109897D01*
X30851247Y-20036934D01*
X30851248Y-20036934D01*
X30618052Y-20000000D01*
X30381948Y-20000000D01*
X30148752Y-20036934D01*
X29924197Y-20109897D01*
X29713830Y-20217084D01*
X29630894Y-20277340D01*
X30329766Y-20976212D01*
X30287708Y-20987482D01*
X30162292Y-21059890D01*
X30059890Y-21162292D01*
X29987482Y-21287708D01*
X29976212Y-21329766D01*
X29277340Y-20630894D01*
X29217084Y-20713830D01*
X29109897Y-20924197D01*
X29036934Y-21148752D01*
X29000000Y-21381947D01*
X25500000Y-21381947D01*
X25463065Y-21148752D01*
X25390102Y-20924197D01*
X25282914Y-20713828D01*
X25222658Y-20630894D01*
X25222658Y-20630893D01*
X24523787Y-21329765D01*
X24512518Y-21287708D01*
X24440110Y-21162292D01*
X24337708Y-21059890D01*
X24212292Y-20987482D01*
X24170234Y-20976212D01*
X24869105Y-20277340D01*
X24869104Y-20277339D01*
X24786174Y-20217087D01*
X24575802Y-20109897D01*
X24351247Y-20036934D01*
X24351248Y-20036934D01*
X24118052Y-20000000D01*
X23881948Y-20000000D01*
X23648752Y-20036934D01*
X23424197Y-20109897D01*
X23213830Y-20217084D01*
X23130894Y-20277340D01*
X23829766Y-20976212D01*
X23787708Y-20987482D01*
X23662292Y-21059890D01*
X23559890Y-21162292D01*
X23487482Y-21287708D01*
X23476212Y-21329766D01*
X22777340Y-20630894D01*
X22717084Y-20713830D01*
X22609897Y-20924197D01*
X22536934Y-21148752D01*
X22500000Y-21381947D01*
X13000000Y-21381947D01*
X13000000Y-10058078D01*
X13019685Y-9991039D01*
X13044617Y-9962819D01*
X14103832Y-9080140D01*
X15541664Y-7881947D01*
X22500000Y-7881947D01*
X22500000Y-8118052D01*
X22536934Y-8351247D01*
X22609897Y-8575802D01*
X22717087Y-8786174D01*
X22777338Y-8869104D01*
X22777340Y-8869105D01*
X23476212Y-8170233D01*
X23487482Y-8212292D01*
X23559890Y-8337708D01*
X23662292Y-8440110D01*
X23787708Y-8512518D01*
X23829765Y-8523787D01*
X23130893Y-9222658D01*
X23213828Y-9282914D01*
X23424197Y-9390102D01*
X23648752Y-9463065D01*
X23648751Y-9463065D01*
X23881948Y-9500000D01*
X24118052Y-9500000D01*
X24351247Y-9463065D01*
X24575802Y-9390102D01*
X24786163Y-9282918D01*
X24786169Y-9282914D01*
X24869104Y-9222658D01*
X24869105Y-9222658D01*
X24170233Y-8523787D01*
X24212292Y-8512518D01*
X24337708Y-8440110D01*
X24440110Y-8337708D01*
X24512518Y-8212292D01*
X24523787Y-8170233D01*
X25222658Y-8869105D01*
X25222658Y-8869104D01*
X25282914Y-8786169D01*
X25282918Y-8786163D01*
X25390102Y-8575802D01*
X25463065Y-8351247D01*
X25500000Y-8118052D01*
X25500000Y-7881947D01*
X29000000Y-7881947D01*
X29000000Y-8118052D01*
X29036934Y-8351247D01*
X29109897Y-8575802D01*
X29217087Y-8786174D01*
X29277338Y-8869104D01*
X29277340Y-8869105D01*
X29976212Y-8170233D01*
X29987482Y-8212292D01*
X30059890Y-8337708D01*
X30162292Y-8440110D01*
X30287708Y-8512518D01*
X30329765Y-8523787D01*
X29630893Y-9222658D01*
X29713828Y-9282914D01*
X29924197Y-9390102D01*
X30148752Y-9463065D01*
X30148751Y-9463065D01*
X30381948Y-9500000D01*
X30618052Y-9500000D01*
X30851247Y-9463065D01*
X31075802Y-9390102D01*
X31286163Y-9282918D01*
X31286169Y-9282914D01*
X31369104Y-9222658D01*
X31369105Y-9222658D01*
X30670233Y-8523787D01*
X30712292Y-8512518D01*
X30837708Y-8440110D01*
X30940110Y-8337708D01*
X31012518Y-8212292D01*
X31023787Y-8170233D01*
X31722658Y-8869105D01*
X31722658Y-8869104D01*
X31782914Y-8786169D01*
X31782918Y-8786163D01*
X31890102Y-8575802D01*
X31963065Y-8351247D01*
X32000000Y-8118052D01*
X32000000Y-7881947D01*
X31963065Y-7648752D01*
X31890102Y-7424197D01*
X31782914Y-7213828D01*
X31722658Y-7130894D01*
X31722658Y-7130893D01*
X31023787Y-7829765D01*
X31012518Y-7787708D01*
X30940110Y-7662292D01*
X30837708Y-7559890D01*
X30712292Y-7487482D01*
X30670234Y-7476212D01*
X31369105Y-6777340D01*
X31369104Y-6777338D01*
X31286174Y-6717087D01*
X31075802Y-6609897D01*
X30851247Y-6536934D01*
X30851248Y-6536934D01*
X30618052Y-6500000D01*
X30381948Y-6500000D01*
X30148752Y-6536934D01*
X29924197Y-6609897D01*
X29713830Y-6717084D01*
X29630894Y-6777340D01*
X30329766Y-7476212D01*
X30287708Y-7487482D01*
X30162292Y-7559890D01*
X30059890Y-7662292D01*
X29987482Y-7787708D01*
X29976212Y-7829766D01*
X29277340Y-7130894D01*
X29217084Y-7213830D01*
X29109897Y-7424197D01*
X29036934Y-7648752D01*
X29000000Y-7881947D01*
X25500000Y-7881947D01*
X25463065Y-7648752D01*
X25390102Y-7424197D01*
X25282914Y-7213828D01*
X25222658Y-7130894D01*
X25222658Y-7130893D01*
X24523787Y-7829765D01*
X24512518Y-7787708D01*
X24440110Y-7662292D01*
X24337708Y-7559890D01*
X24212292Y-7487482D01*
X24170234Y-7476212D01*
X24869105Y-6777340D01*
X24869104Y-6777339D01*
X24786174Y-6717087D01*
X24575802Y-6609897D01*
X24351247Y-6536934D01*
X24351248Y-6536934D01*
X24118052Y-6500000D01*
X23881948Y-6500000D01*
X23648752Y-6536934D01*
X23424197Y-6609897D01*
X23213830Y-6717084D01*
X23130894Y-6777340D01*
X23829766Y-7476212D01*
X23787708Y-7487482D01*
X23662292Y-7559890D01*
X23559890Y-7662292D01*
X23487482Y-7787708D01*
X23476212Y-7829766D01*
X22777340Y-7130894D01*
X22717084Y-7213830D01*
X22609897Y-7424197D01*
X22536934Y-7648752D01*
X22500000Y-7881947D01*
X15541664Y-7881947D01*
X15661821Y-7781816D01*
X16924792Y-6729340D01*
X18965511Y-5028741D01*
X19029614Y-5000945D01*
X19044894Y-5000000D01*
X33948638Y-5000000D01*
X34015677Y-5019685D01*
G37*
%TD.AperFunction*%
%TD*%
%TA.AperFunction,Conductor*%
%TO.N,GND*%
G36*
X57997782Y-500579D02*
G01*
X58001100Y-500697D01*
X58002207Y-500737D01*
X58006624Y-500973D01*
X58200146Y-514814D01*
X58208916Y-515756D01*
X58217713Y-517021D01*
X58226370Y-518584D01*
X58409465Y-558413D01*
X58418038Y-560600D01*
X58426506Y-563087D01*
X58434896Y-565878D01*
X58610475Y-631366D01*
X58618640Y-634749D01*
X58626666Y-638414D01*
X58634570Y-642369D01*
X58747495Y-704032D01*
X58799013Y-732163D01*
X58806630Y-736682D01*
X58814078Y-741469D01*
X58821344Y-746515D01*
X58971312Y-858779D01*
X58978204Y-864333D01*
X58984893Y-870129D01*
X58991372Y-876161D01*
X59123837Y-1008626D01*
X59129869Y-1015105D01*
X59135665Y-1021794D01*
X59141219Y-1028686D01*
X59253483Y-1178654D01*
X59258529Y-1185920D01*
X59263316Y-1193368D01*
X59267835Y-1200985D01*
X59357620Y-1365413D01*
X59361577Y-1373317D01*
X59365256Y-1381372D01*
X59368640Y-1389542D01*
X59434111Y-1565080D01*
X59436906Y-1573478D01*
X59439398Y-1581965D01*
X59441587Y-1590542D01*
X59481407Y-1773595D01*
X59482978Y-1782297D01*
X59484238Y-1791056D01*
X59485185Y-1799865D01*
X59499026Y-1993371D01*
X59499263Y-1997791D01*
X59499421Y-2002214D01*
X59499500Y-2006641D01*
X59499500Y-47993357D01*
X59499421Y-47997780D01*
X59499421Y-47997784D01*
X59499263Y-48002207D01*
X59499026Y-48006627D01*
X59485185Y-48200133D01*
X59484238Y-48208942D01*
X59482978Y-48217701D01*
X59481407Y-48226403D01*
X59441587Y-48409456D01*
X59439398Y-48418033D01*
X59436906Y-48426520D01*
X59434111Y-48434918D01*
X59368640Y-48610456D01*
X59365250Y-48618641D01*
X59361580Y-48626676D01*
X59357620Y-48634585D01*
X59267835Y-48799013D01*
X59263316Y-48806630D01*
X59258529Y-48814078D01*
X59253483Y-48821344D01*
X59141219Y-48971312D01*
X59135665Y-48978204D01*
X59129869Y-48984893D01*
X59123837Y-48991372D01*
X58991372Y-49123837D01*
X58984893Y-49129869D01*
X58978204Y-49135665D01*
X58971312Y-49141219D01*
X58821344Y-49253483D01*
X58814078Y-49258529D01*
X58806630Y-49263316D01*
X58799013Y-49267835D01*
X58634585Y-49357620D01*
X58626676Y-49361580D01*
X58618641Y-49365250D01*
X58610456Y-49368640D01*
X58434918Y-49434111D01*
X58426520Y-49436906D01*
X58418033Y-49439398D01*
X58409456Y-49441587D01*
X58226403Y-49481407D01*
X58217699Y-49482978D01*
X58208939Y-49484238D01*
X58200132Y-49485185D01*
X58023779Y-49497799D01*
X58015674Y-49498378D01*
X58006618Y-49499026D01*
X58002234Y-49499261D01*
X57997929Y-49499415D01*
X57997810Y-49499420D01*
X57993356Y-49499500D01*
X2006643Y-49499500D01*
X2002218Y-49499421D01*
X1997792Y-49499262D01*
X1993374Y-49499026D01*
X1986118Y-49498507D01*
X1973622Y-49497613D01*
X1973621Y-49497612D01*
X1799866Y-49485185D01*
X1791059Y-49484238D01*
X1782299Y-49482978D01*
X1773595Y-49481407D01*
X1590542Y-49441587D01*
X1581965Y-49439398D01*
X1573478Y-49436906D01*
X1565080Y-49434111D01*
X1389542Y-49368640D01*
X1381372Y-49365256D01*
X1373317Y-49361577D01*
X1365413Y-49357620D01*
X1200985Y-49267835D01*
X1193368Y-49263316D01*
X1185920Y-49258529D01*
X1178654Y-49253483D01*
X1028686Y-49141219D01*
X1021794Y-49135665D01*
X1015105Y-49129869D01*
X1008626Y-49123837D01*
X876161Y-48991372D01*
X870129Y-48984893D01*
X864333Y-48978204D01*
X858779Y-48971312D01*
X746515Y-48821344D01*
X741469Y-48814078D01*
X736682Y-48806630D01*
X732171Y-48799028D01*
X642366Y-48634564D01*
X638417Y-48626672D01*
X634747Y-48618635D01*
X631366Y-48610474D01*
X565878Y-48434896D01*
X563090Y-48426517D01*
X560595Y-48418017D01*
X558412Y-48409460D01*
X558411Y-48409456D01*
X518587Y-48226385D01*
X517020Y-48217701D01*
X515757Y-48208917D01*
X514814Y-48200151D01*
X500973Y-48006624D01*
X500737Y-48002206D01*
X500579Y-47997780D01*
X500500Y-47993356D01*
X500500Y-44840316D01*
X1749500Y-44840316D01*
X1749500Y-45159683D01*
X1760725Y-45273665D01*
X1780802Y-45477519D01*
X1780802Y-45477521D01*
X1843103Y-45790733D01*
X1843106Y-45790744D01*
X1935821Y-46096387D01*
X2057758Y-46390767D01*
X2057993Y-46391346D01*
X2058038Y-46391441D01*
X2058040Y-46391446D01*
X2058042Y-46391451D01*
X2058045Y-46391456D01*
X2208571Y-46673072D01*
X2208583Y-46673093D01*
X2208584Y-46673094D01*
X2208601Y-46673122D01*
X2386012Y-46938638D01*
X2386015Y-46938642D01*
X2386030Y-46938663D01*
X2386039Y-46938674D01*
X2588642Y-47185545D01*
X2814452Y-47411355D01*
X2814527Y-47411422D01*
X2815048Y-47411844D01*
X3061344Y-47613975D01*
X3061351Y-47613980D01*
X3061361Y-47613987D01*
X3061378Y-47613998D01*
X3061406Y-47614018D01*
X3322515Y-47788484D01*
X3322526Y-47788490D01*
X3326877Y-47791398D01*
X3326882Y-47791401D01*
X3326894Y-47791409D01*
X3326903Y-47791413D01*
X3326905Y-47791415D01*
X3329607Y-47792859D01*
X3330054Y-47793135D01*
X3330874Y-47793536D01*
X3608548Y-47941957D01*
X3612022Y-47943814D01*
X3616996Y-47945457D01*
X3903619Y-48064180D01*
X4209240Y-48156889D01*
X4522477Y-48219196D01*
X4840313Y-48250500D01*
X4840316Y-48250500D01*
X5159684Y-48250500D01*
X5159687Y-48250500D01*
X5477523Y-48219196D01*
X5790760Y-48156889D01*
X6096381Y-48064180D01*
X6391444Y-47941961D01*
X6673106Y-47791409D01*
X6938656Y-47613975D01*
X7185535Y-47411366D01*
X7411366Y-47185535D01*
X7613975Y-46938656D01*
X7791409Y-46673106D01*
X7941961Y-46391444D01*
X8064180Y-46096381D01*
X8156889Y-45790760D01*
X8219196Y-45477523D01*
X8250500Y-45159687D01*
X8250500Y-44840316D01*
X51749500Y-44840316D01*
X51749500Y-45159683D01*
X51760725Y-45273665D01*
X51780802Y-45477519D01*
X51780802Y-45477521D01*
X51843103Y-45790733D01*
X51843106Y-45790744D01*
X51935821Y-46096387D01*
X52057758Y-46390767D01*
X52057993Y-46391346D01*
X52058038Y-46391441D01*
X52058040Y-46391446D01*
X52058042Y-46391451D01*
X52058045Y-46391456D01*
X52208571Y-46673072D01*
X52208583Y-46673093D01*
X52208584Y-46673094D01*
X52208601Y-46673122D01*
X52386012Y-46938638D01*
X52386015Y-46938642D01*
X52386030Y-46938663D01*
X52386039Y-46938674D01*
X52588642Y-47185545D01*
X52814452Y-47411355D01*
X52814527Y-47411422D01*
X52815048Y-47411844D01*
X53061344Y-47613975D01*
X53061351Y-47613980D01*
X53061361Y-47613987D01*
X53061378Y-47613998D01*
X53061406Y-47614018D01*
X53322515Y-47788484D01*
X53322526Y-47788490D01*
X53326877Y-47791398D01*
X53326882Y-47791401D01*
X53326894Y-47791409D01*
X53326903Y-47791413D01*
X53326905Y-47791415D01*
X53329607Y-47792859D01*
X53330054Y-47793135D01*
X53330874Y-47793536D01*
X53608548Y-47941957D01*
X53612022Y-47943814D01*
X53616996Y-47945457D01*
X53903619Y-48064180D01*
X54209240Y-48156889D01*
X54522477Y-48219196D01*
X54840313Y-48250500D01*
X54840316Y-48250500D01*
X55159684Y-48250500D01*
X55159687Y-48250500D01*
X55477523Y-48219196D01*
X55790760Y-48156889D01*
X56096381Y-48064180D01*
X56391444Y-47941961D01*
X56673106Y-47791409D01*
X56938656Y-47613975D01*
X57185535Y-47411366D01*
X57411366Y-47185535D01*
X57613975Y-46938656D01*
X57791409Y-46673106D01*
X57941961Y-46391444D01*
X58064180Y-46096381D01*
X58156889Y-45790760D01*
X58219196Y-45477523D01*
X58250500Y-45159687D01*
X58250500Y-44840313D01*
X58219196Y-44522477D01*
X58156889Y-44209240D01*
X58064180Y-43903619D01*
X57941961Y-43608556D01*
X57791409Y-43326894D01*
X57791398Y-43326877D01*
X57613987Y-43061361D01*
X57613980Y-43061351D01*
X57613975Y-43061344D01*
X57411855Y-42815060D01*
X57411357Y-42814454D01*
X57185545Y-42588642D01*
X56938674Y-42386039D01*
X56938663Y-42386030D01*
X56938642Y-42386015D01*
X56938638Y-42386012D01*
X56673122Y-42208601D01*
X56673109Y-42208593D01*
X56673093Y-42208583D01*
X56673072Y-42208571D01*
X56450258Y-42089475D01*
X56391451Y-42058042D01*
X56391446Y-42058040D01*
X56391441Y-42058038D01*
X56391346Y-42057993D01*
X56390767Y-42057758D01*
X56096387Y-41935821D01*
X55790744Y-41843106D01*
X55790733Y-41843103D01*
X55582429Y-41801670D01*
X55557617Y-41788691D01*
X55238141Y-41757227D01*
X55232161Y-41756638D01*
X55159687Y-41749500D01*
X55159684Y-41749500D01*
X54840315Y-41749500D01*
X54840313Y-41749500D01*
X54828386Y-41750674D01*
X54767822Y-41756638D01*
X54767822Y-41756639D01*
X54745825Y-41758805D01*
X54522477Y-41780802D01*
X54209265Y-41843103D01*
X54209254Y-41843106D01*
X53903611Y-41935821D01*
X53609231Y-42057758D01*
X53608656Y-42057992D01*
X53608542Y-42058045D01*
X53326926Y-42208571D01*
X53326905Y-42208583D01*
X53326886Y-42208595D01*
X53061356Y-42386015D01*
X53061335Y-42386030D01*
X53061324Y-42386039D01*
X52814453Y-42588642D01*
X52588642Y-42814453D01*
X52386039Y-43061324D01*
X52386030Y-43061335D01*
X52386015Y-43061356D01*
X52208595Y-43326886D01*
X52208583Y-43326905D01*
X52208571Y-43326926D01*
X52058045Y-43608542D01*
X52057992Y-43608656D01*
X52057758Y-43609231D01*
X51935821Y-43903611D01*
X51843106Y-44209254D01*
X51843103Y-44209265D01*
X51780802Y-44522477D01*
X51780802Y-44522479D01*
X51757919Y-44754829D01*
X51749500Y-44840316D01*
X8250500Y-44840316D01*
X8250500Y-44840313D01*
X8219196Y-44522477D01*
X8156889Y-44209240D01*
X8064180Y-43903619D01*
X7941961Y-43608556D01*
X7791409Y-43326894D01*
X7791398Y-43326877D01*
X7613987Y-43061361D01*
X7613980Y-43061351D01*
X7613975Y-43061344D01*
X7411855Y-42815060D01*
X7411357Y-42814454D01*
X7185545Y-42588642D01*
X6938674Y-42386039D01*
X6938663Y-42386030D01*
X6938642Y-42386015D01*
X6938638Y-42386012D01*
X6673122Y-42208601D01*
X6673109Y-42208593D01*
X6673093Y-42208583D01*
X6673072Y-42208571D01*
X6450258Y-42089475D01*
X6391451Y-42058042D01*
X6391446Y-42058040D01*
X6391441Y-42058038D01*
X6391346Y-42057993D01*
X6390767Y-42057758D01*
X6096387Y-41935821D01*
X5790744Y-41843106D01*
X5790733Y-41843103D01*
X5582429Y-41801670D01*
X5557617Y-41788691D01*
X5238141Y-41757227D01*
X5232161Y-41756638D01*
X5159687Y-41749500D01*
X5159684Y-41749500D01*
X4840315Y-41749500D01*
X4840313Y-41749500D01*
X4828386Y-41750674D01*
X4767822Y-41756638D01*
X4767822Y-41756639D01*
X4745825Y-41758805D01*
X4522477Y-41780802D01*
X4209265Y-41843103D01*
X4209254Y-41843106D01*
X3903611Y-41935821D01*
X3609231Y-42057758D01*
X3608656Y-42057992D01*
X3608542Y-42058045D01*
X3326926Y-42208571D01*
X3326905Y-42208583D01*
X3326886Y-42208595D01*
X3061356Y-42386015D01*
X3061335Y-42386030D01*
X3061324Y-42386039D01*
X2814453Y-42588642D01*
X2588642Y-42814453D01*
X2386039Y-43061324D01*
X2386030Y-43061335D01*
X2386015Y-43061356D01*
X2208595Y-43326886D01*
X2208583Y-43326905D01*
X2208571Y-43326926D01*
X2058045Y-43608542D01*
X2057992Y-43608656D01*
X2057758Y-43609231D01*
X1935821Y-43903611D01*
X1843106Y-44209254D01*
X1843103Y-44209265D01*
X1780802Y-44522477D01*
X1780802Y-44522479D01*
X1757919Y-44754829D01*
X1749500Y-44840316D01*
X500500Y-44840316D01*
X500500Y-29450000D01*
X10020898Y-29450000D01*
X10887750Y-29450000D01*
X10954789Y-29469685D01*
X11000544Y-29522489D01*
X11010488Y-29591647D01*
X11007524Y-29606095D01*
X11000000Y-29634171D01*
X11000000Y-29765828D01*
X11007524Y-29793905D01*
X11005863Y-29863755D01*
X10966701Y-29921618D01*
X10902473Y-29949123D01*
X10887750Y-29950000D01*
X10020898Y-29950000D01*
X10027901Y-29994219D01*
X10036934Y-30051247D01*
X10109897Y-30275802D01*
X10217085Y-30486171D01*
X10355866Y-30677186D01*
X10522813Y-30844133D01*
X10713828Y-30982914D01*
X10924197Y-31090102D01*
X11055782Y-31132857D01*
X11085252Y-31153007D01*
X11148749Y-31163064D01*
X11148752Y-31163065D01*
X11148751Y-31163065D01*
X11381948Y-31200000D01*
X12350000Y-31200000D01*
X12350000Y-30324000D01*
X12369685Y-30256961D01*
X12422489Y-30211206D01*
X12474000Y-30200000D01*
X12726000Y-30200000D01*
X12793039Y-30219685D01*
X12838794Y-30272489D01*
X12850000Y-30324000D01*
X12850000Y-31200000D01*
X13818051Y-31200000D01*
X13818052Y-31200000D01*
X14051247Y-31163065D01*
X14275802Y-31090102D01*
X14486171Y-30982914D01*
X14677186Y-30844133D01*
X14844133Y-30677186D01*
X14982914Y-30486171D01*
X15090102Y-30275802D01*
X15162854Y-30051893D01*
X15169431Y-30042275D01*
X15171899Y-30030884D01*
X15188795Y-30013957D01*
X15202292Y-29994219D01*
X15213026Y-29989682D01*
X15221260Y-29981434D01*
X15244622Y-29976329D01*
X15266650Y-29967021D01*
X15278133Y-29969008D01*
X15289519Y-29966521D01*
X15311932Y-29974857D01*
X15335497Y-29978936D01*
X15345752Y-29987437D01*
X15355006Y-29990879D01*
X15379984Y-30015812D01*
X15406557Y-30051243D01*
X15469700Y-30135433D01*
X15494176Y-30200875D01*
X15494500Y-30209833D01*
X15494500Y-31898948D01*
X15494649Y-31901978D01*
X15494600Y-31901980D01*
X15495000Y-31910110D01*
X15495000Y-32089886D01*
X15494601Y-32098014D01*
X15494649Y-32098017D01*
X15494500Y-32101047D01*
X15494500Y-32948640D01*
X15497397Y-33002688D01*
X15497397Y-33002689D01*
X15500229Y-33029022D01*
X15500232Y-33029049D01*
X15508885Y-33082445D01*
X15508885Y-33082447D01*
X15559166Y-33217252D01*
X15559168Y-33217257D01*
X15592653Y-33278580D01*
X15678877Y-33393761D01*
X15678881Y-33393765D01*
X15678886Y-33393771D01*
X17458181Y-35173065D01*
X17491666Y-35234388D01*
X17494500Y-35260746D01*
X17494500Y-36948640D01*
X17497397Y-37002688D01*
X17497397Y-37002689D01*
X17500229Y-37029022D01*
X17500232Y-37029049D01*
X17508885Y-37082445D01*
X17508885Y-37082447D01*
X17554883Y-37205769D01*
X17559168Y-37217257D01*
X17576076Y-37248222D01*
X17592523Y-37278343D01*
X17592653Y-37278580D01*
X17678877Y-37393761D01*
X17678881Y-37393765D01*
X17678886Y-37393771D01*
X18660393Y-38375277D01*
X19606239Y-39321123D01*
X19606255Y-39321137D01*
X19606262Y-39321144D01*
X19646480Y-39357271D01*
X19646492Y-39357281D01*
X19646500Y-39357288D01*
X19667142Y-39373922D01*
X19711026Y-39405567D01*
X19841903Y-39465338D01*
X19908942Y-39485023D01*
X19908946Y-39485024D01*
X20051362Y-39505500D01*
X22413931Y-39505500D01*
X22480970Y-39525185D01*
X22526725Y-39577989D01*
X22536669Y-39647147D01*
X22536404Y-39648898D01*
X22499500Y-39881896D01*
X22499500Y-40118102D01*
X22536445Y-40351362D01*
X22536446Y-40351368D01*
X22609433Y-40575996D01*
X22683653Y-40721659D01*
X22716657Y-40786433D01*
X22855483Y-40977510D01*
X23022490Y-41144517D01*
X23213567Y-41283343D01*
X23312991Y-41334002D01*
X23424003Y-41390566D01*
X23424876Y-41391011D01*
X23428630Y-41392070D01*
X23476335Y-41407569D01*
X23544410Y-41429688D01*
X23544411Y-41429689D01*
X23544412Y-41429689D01*
X23648631Y-41463553D01*
X23881903Y-41500500D01*
X23881908Y-41500500D01*
X24118096Y-41500500D01*
X24118097Y-41500500D01*
X24351368Y-41463553D01*
X24575992Y-41390568D01*
X24786433Y-41283343D01*
X24977510Y-41144517D01*
X25144517Y-40977510D01*
X25261843Y-40816023D01*
X25286424Y-40790732D01*
X25304075Y-40777121D01*
X25356912Y-40753452D01*
X25361307Y-40752626D01*
X25368783Y-40751931D01*
X25369177Y-40751778D01*
X25369571Y-40751857D01*
X25384172Y-40750500D01*
X29109539Y-40750500D01*
X29144475Y-40755523D01*
X29165845Y-40761798D01*
X29177435Y-40768452D01*
X29187187Y-40770282D01*
X29216037Y-40790613D01*
X29219279Y-40793674D01*
X29234467Y-40810948D01*
X29355483Y-40977510D01*
X29522490Y-41144517D01*
X29713567Y-41283343D01*
X29812991Y-41334002D01*
X29924003Y-41390566D01*
X29924876Y-41391011D01*
X29928630Y-41392070D01*
X29976335Y-41407569D01*
X30044410Y-41429688D01*
X30044411Y-41429689D01*
X30044412Y-41429689D01*
X30148631Y-41463553D01*
X30381903Y-41500500D01*
X30381908Y-41500500D01*
X30618096Y-41500500D01*
X30618097Y-41500500D01*
X30851368Y-41463553D01*
X31075992Y-41390568D01*
X31286433Y-41283343D01*
X31477510Y-41144517D01*
X31644517Y-40977510D01*
X31761843Y-40816023D01*
X31786424Y-40790732D01*
X31804075Y-40777121D01*
X31856912Y-40753452D01*
X31861307Y-40752626D01*
X31868783Y-40751931D01*
X31869177Y-40751778D01*
X31869571Y-40751857D01*
X31884172Y-40750500D01*
X36073920Y-40750500D01*
X36171462Y-40731096D01*
X36218913Y-40721658D01*
X36355495Y-40665084D01*
X36404729Y-40632186D01*
X36478416Y-40582952D01*
X38261946Y-38799419D01*
X38290197Y-38778273D01*
X38313287Y-38765666D01*
X38372710Y-38750500D01*
X38737618Y-38750500D01*
X38772550Y-38755521D01*
X38797794Y-38762934D01*
X38850540Y-38794230D01*
X38876650Y-38820340D01*
X39023484Y-38910908D01*
X39187247Y-38965174D01*
X39288323Y-38975500D01*
X39886676Y-38975499D01*
X39886684Y-38975498D01*
X39886687Y-38975498D01*
X39886695Y-38975497D01*
X39886985Y-38975479D01*
X39888001Y-38975363D01*
X39932342Y-38970833D01*
X39942031Y-38969844D01*
X39942031Y-38969843D01*
X39987753Y-38965174D01*
X40151516Y-38910908D01*
X40298350Y-38820340D01*
X40399717Y-38718972D01*
X40427964Y-38697827D01*
X40441688Y-38690333D01*
X40509946Y-38675482D01*
X40511756Y-38675611D01*
X40569953Y-38694977D01*
X40576471Y-38699166D01*
X40597106Y-38715796D01*
X40701650Y-38820340D01*
X40848484Y-38910908D01*
X41012247Y-38965174D01*
X41113323Y-38975500D01*
X41711676Y-38975499D01*
X41711684Y-38975498D01*
X41711687Y-38975498D01*
X41711695Y-38975497D01*
X41711985Y-38975479D01*
X41713001Y-38975363D01*
X41757342Y-38970833D01*
X41767031Y-38969844D01*
X41767031Y-38969843D01*
X41812753Y-38965174D01*
X41976516Y-38910908D01*
X42123350Y-38820340D01*
X42144271Y-38799418D01*
X42172516Y-38778275D01*
X42195608Y-38765667D01*
X42255033Y-38750500D01*
X46418146Y-38750500D01*
X46453082Y-38755523D01*
X46474452Y-38761798D01*
X46524661Y-38790629D01*
X46527906Y-38793694D01*
X46543080Y-38810955D01*
X46616754Y-38912361D01*
X46706881Y-39002488D01*
X46772636Y-39068243D01*
X46772660Y-39068261D01*
X46921969Y-39176740D01*
X46921975Y-39176743D01*
X46928192Y-39181260D01*
X46950978Y-39197815D01*
X47067501Y-39257187D01*
X47147393Y-39297895D01*
X47147396Y-39297896D01*
X47147405Y-39297899D01*
X47147419Y-39297904D01*
X47252221Y-39331955D01*
X47357049Y-39366015D01*
X47574778Y-39400500D01*
X47574779Y-39400500D01*
X47795221Y-39400500D01*
X47795222Y-39400500D01*
X48012951Y-39366015D01*
X48222606Y-39297895D01*
X48419022Y-39197815D01*
X48597365Y-39068242D01*
X48635323Y-39030282D01*
X48663563Y-39009142D01*
X48675751Y-39002487D01*
X48744020Y-38987635D01*
X48809484Y-39012050D01*
X48809485Y-39012051D01*
X48813160Y-39014802D01*
X48855032Y-39070735D01*
X48881643Y-39142081D01*
X48881646Y-39142087D01*
X48881649Y-39142093D01*
X48967808Y-39257185D01*
X48967809Y-39257187D01*
X48967813Y-39257191D01*
X48996747Y-39278850D01*
X49082906Y-39343350D01*
X49082913Y-39343354D01*
X49217620Y-39393596D01*
X49217627Y-39393598D01*
X49224468Y-39394333D01*
X49277138Y-39399998D01*
X49277155Y-39399999D01*
X49277172Y-39400000D01*
X49975000Y-39400000D01*
X49975000Y-38560486D01*
X49994685Y-38493447D01*
X50047489Y-38447692D01*
X50116647Y-38437748D01*
X50131086Y-38440710D01*
X50165756Y-38450000D01*
X50284242Y-38450000D01*
X50284244Y-38450000D01*
X50318906Y-38440712D01*
X50388755Y-38442373D01*
X50446618Y-38481535D01*
X50474123Y-38545763D01*
X50475000Y-38560486D01*
X50475000Y-39400000D01*
X51172828Y-39400000D01*
X51172836Y-39400000D01*
X51172847Y-39399999D01*
X51208560Y-39396158D01*
X51232372Y-39393598D01*
X51232379Y-39393596D01*
X51367086Y-39343354D01*
X51367093Y-39343350D01*
X51482187Y-39257190D01*
X51482190Y-39257187D01*
X51568350Y-39142093D01*
X51568354Y-39142086D01*
X51618596Y-39007379D01*
X51618598Y-39007372D01*
X51622025Y-38975500D01*
X51624998Y-38947860D01*
X51625000Y-38947827D01*
X51625000Y-38250000D01*
X50785487Y-38250000D01*
X50718448Y-38230315D01*
X50672693Y-38177511D01*
X50662749Y-38108353D01*
X50665712Y-38093907D01*
X50675000Y-38059244D01*
X50675000Y-37940756D01*
X50665712Y-37906092D01*
X50667375Y-37836243D01*
X50706538Y-37778381D01*
X50770767Y-37750877D01*
X50785487Y-37750000D01*
X51625000Y-37750000D01*
X51625000Y-37052172D01*
X51624998Y-37052138D01*
X51618598Y-36992628D01*
X51618596Y-36992621D01*
X51618596Y-36992620D01*
X51568354Y-36857913D01*
X51568350Y-36857906D01*
X51482190Y-36742812D01*
X51482187Y-36742809D01*
X51482185Y-36742807D01*
X51424317Y-36699487D01*
X51367093Y-36656649D01*
X51367088Y-36656646D01*
X51367089Y-36656646D01*
X51232377Y-36606402D01*
X51232370Y-36606400D01*
X51172852Y-36600000D01*
X51172844Y-36600000D01*
X50475000Y-36600000D01*
X50475000Y-37439513D01*
X50455315Y-37506552D01*
X50402511Y-37552307D01*
X50333353Y-37562251D01*
X50318907Y-37559288D01*
X50284244Y-37550000D01*
X50284243Y-37550000D01*
X50165756Y-37550000D01*
X50131093Y-37559288D01*
X50061243Y-37557625D01*
X50003381Y-37518462D01*
X49975877Y-37454233D01*
X49975000Y-37439513D01*
X49975000Y-36600000D01*
X49277155Y-36600000D01*
X49277146Y-36600000D01*
X49217628Y-36606400D01*
X49217621Y-36606402D01*
X49082910Y-36656646D01*
X49082907Y-36656648D01*
X48967813Y-36742807D01*
X48967810Y-36742810D01*
X48967808Y-36742813D01*
X48881646Y-36857910D01*
X48881643Y-36857917D01*
X48858014Y-36921266D01*
X48843975Y-36946975D01*
X48841099Y-36952241D01*
X48832782Y-36963351D01*
X48776848Y-37005222D01*
X48707178Y-37010211D01*
X48706463Y-37010055D01*
X48702694Y-37009235D01*
X48641370Y-36975763D01*
X48628958Y-36963351D01*
X48597370Y-36931762D01*
X48597369Y-36931761D01*
X48597364Y-36931757D01*
X48597363Y-36931756D01*
X48597358Y-36931752D01*
X48582925Y-36921266D01*
X48429630Y-36809891D01*
X48429618Y-36809883D01*
X48419025Y-36802187D01*
X48419024Y-36802186D01*
X48419022Y-36802185D01*
X48412909Y-36799070D01*
X48412898Y-36799063D01*
X48356098Y-36770123D01*
X48356096Y-36770122D01*
X48222606Y-36702104D01*
X48222602Y-36702102D01*
X48222579Y-36702094D01*
X48012954Y-36633985D01*
X48012955Y-36633985D01*
X47904086Y-36616742D01*
X47795227Y-36599500D01*
X47795222Y-36599500D01*
X47574778Y-36599500D01*
X47574774Y-36599500D01*
X47516716Y-36608696D01*
X47502201Y-36610995D01*
X47357043Y-36633985D01*
X47147419Y-36702094D01*
X47147396Y-36702102D01*
X47147392Y-36702104D01*
X46950972Y-36802187D01*
X46772658Y-36931739D01*
X46772629Y-36931761D01*
X46772627Y-36931763D01*
X46616758Y-37087633D01*
X46616755Y-37087635D01*
X46546774Y-37183959D01*
X46522176Y-37209270D01*
X46504537Y-37222872D01*
X46451715Y-37246544D01*
X46451066Y-37246666D01*
X46447332Y-37247367D01*
X46439829Y-37248066D01*
X46439429Y-37248222D01*
X46439028Y-37248140D01*
X46424436Y-37249500D01*
X42262382Y-37249500D01*
X42227446Y-37244477D01*
X42202204Y-37237065D01*
X42149459Y-37205769D01*
X42123351Y-37179661D01*
X42123350Y-37179660D01*
X42032129Y-37123395D01*
X41976518Y-37089093D01*
X41976513Y-37089091D01*
X41821221Y-37037632D01*
X41818401Y-37036466D01*
X41812748Y-37034824D01*
X41711687Y-37024500D01*
X41711678Y-37024500D01*
X41113330Y-37024500D01*
X41113312Y-37024501D01*
X41113290Y-37024503D01*
X41113280Y-37024504D01*
X41012250Y-37034824D01*
X40848477Y-37089094D01*
X40701648Y-37179660D01*
X40701645Y-37179662D01*
X40600285Y-37281023D01*
X40600282Y-37281024D01*
X40600282Y-37281026D01*
X40572027Y-37302176D01*
X40558309Y-37309666D01*
X40490051Y-37324517D01*
X40490036Y-37324515D01*
X40490036Y-37324516D01*
X40490035Y-37324515D01*
X40488245Y-37324388D01*
X40430044Y-37305020D01*
X40423529Y-37300833D01*
X40402893Y-37284203D01*
X40298351Y-37179661D01*
X40298350Y-37179660D01*
X40207129Y-37123395D01*
X40151518Y-37089093D01*
X40151513Y-37089091D01*
X39996221Y-37037632D01*
X39993401Y-37036466D01*
X39987748Y-37034824D01*
X39886687Y-37024500D01*
X39886678Y-37024500D01*
X39288330Y-37024500D01*
X39288312Y-37024501D01*
X39288290Y-37024503D01*
X39288280Y-37024504D01*
X39187250Y-37034824D01*
X39023477Y-37089094D01*
X38876651Y-37179658D01*
X38855732Y-37200577D01*
X38830181Y-37219704D01*
X38827481Y-37221725D01*
X38804396Y-37234331D01*
X38744967Y-37249500D01*
X37926078Y-37249500D01*
X37781096Y-37278338D01*
X37781079Y-37278344D01*
X37644517Y-37334908D01*
X37644499Y-37334918D01*
X37557152Y-37393282D01*
X37555943Y-37394091D01*
X37521581Y-37417050D01*
X37521580Y-37417051D01*
X37521579Y-37417051D01*
X35738058Y-39200573D01*
X35715797Y-39217238D01*
X35709807Y-39221722D01*
X35686719Y-39234330D01*
X35627289Y-39249500D01*
X33764746Y-39249500D01*
X33697707Y-39229815D01*
X33651952Y-39177011D01*
X33642008Y-39107853D01*
X33671033Y-39044297D01*
X33677065Y-39037819D01*
X34484569Y-38230315D01*
X35321123Y-37393761D01*
X35357288Y-37353500D01*
X35373922Y-37332858D01*
X35405567Y-37288974D01*
X35465338Y-37158097D01*
X35485023Y-37091058D01*
X35485024Y-37091054D01*
X35505500Y-36948638D01*
X35505500Y-35051362D01*
X35502603Y-34997322D01*
X35499769Y-34970964D01*
X35491114Y-34917552D01*
X35440832Y-34782743D01*
X35407347Y-34721420D01*
X35321123Y-34606239D01*
X35321118Y-34606234D01*
X35321113Y-34606228D01*
X33393776Y-32678892D01*
X33393761Y-32678877D01*
X33393737Y-32678855D01*
X33353519Y-32642728D01*
X33353507Y-32642718D01*
X33332856Y-32626076D01*
X33288974Y-32594433D01*
X33158100Y-32534663D01*
X33091055Y-32514976D01*
X33043582Y-32508150D01*
X32948638Y-32494500D01*
X32948636Y-32494500D01*
X20260746Y-32494500D01*
X20193707Y-32474815D01*
X20173065Y-32458181D01*
X18541819Y-30826935D01*
X18508334Y-30765612D01*
X18505500Y-30739254D01*
X18505500Y-24629500D01*
X18525185Y-24562461D01*
X18577989Y-24516706D01*
X18629500Y-24505500D01*
X23122566Y-24505500D01*
X23152813Y-24514381D01*
X23183541Y-24521527D01*
X23186094Y-24524154D01*
X23189605Y-24525185D01*
X23210244Y-24549004D01*
X23232236Y-24571633D01*
X23232963Y-24575223D01*
X23235360Y-24577989D01*
X23239847Y-24609198D01*
X23246111Y-24640111D01*
X23244782Y-24643522D01*
X23245304Y-24647147D01*
X23232201Y-24675837D01*
X23220762Y-24705220D01*
X23217203Y-24708678D01*
X23216279Y-24710703D01*
X23195452Y-24729818D01*
X23034361Y-24846858D01*
X23026980Y-24850991D01*
X22850991Y-25026980D01*
X22846861Y-25034356D01*
X22830397Y-25057018D01*
X22828780Y-25059244D01*
X22716657Y-25213566D01*
X22716654Y-25213570D01*
X22716653Y-25213573D01*
X22698093Y-25250000D01*
X22609433Y-25424003D01*
X22536446Y-25648631D01*
X22536445Y-25648634D01*
X22536445Y-25648636D01*
X22499500Y-25881896D01*
X22499500Y-26118102D01*
X22527977Y-26297895D01*
X22536446Y-26351368D01*
X22609433Y-26575996D01*
X22683653Y-26721659D01*
X22716657Y-26786433D01*
X22855483Y-26977510D01*
X23022490Y-27144517D01*
X23213567Y-27283343D01*
X23312991Y-27334002D01*
X23424003Y-27390566D01*
X23424876Y-27391011D01*
X23428630Y-27392070D01*
X23452009Y-27399666D01*
X23544410Y-27429688D01*
X23544411Y-27429689D01*
X23544412Y-27429689D01*
X23648631Y-27463553D01*
X23881903Y-27500500D01*
X23881908Y-27500500D01*
X24118096Y-27500500D01*
X24118097Y-27500500D01*
X24351368Y-27463553D01*
X24575992Y-27390568D01*
X24786433Y-27283343D01*
X24977510Y-27144517D01*
X25144517Y-26977510D01*
X25261843Y-26816023D01*
X25286424Y-26790732D01*
X25304075Y-26777121D01*
X25356912Y-26753452D01*
X25361307Y-26752626D01*
X25368783Y-26751931D01*
X25369177Y-26751778D01*
X25369571Y-26751857D01*
X25384172Y-26750500D01*
X29109539Y-26750500D01*
X29144475Y-26755523D01*
X29165845Y-26761798D01*
X29177435Y-26768452D01*
X29187187Y-26770282D01*
X29216037Y-26790613D01*
X29219279Y-26793674D01*
X29234467Y-26810948D01*
X29355483Y-26977510D01*
X29522490Y-27144517D01*
X29713567Y-27283343D01*
X29812991Y-27334002D01*
X29924003Y-27390566D01*
X29924876Y-27391011D01*
X29928630Y-27392070D01*
X29952009Y-27399666D01*
X30044410Y-27429688D01*
X30044411Y-27429689D01*
X30044412Y-27429689D01*
X30148631Y-27463553D01*
X30381903Y-27500500D01*
X30381908Y-27500500D01*
X30618096Y-27500500D01*
X30618097Y-27500500D01*
X30851368Y-27463553D01*
X31075992Y-27390568D01*
X31286433Y-27283343D01*
X31477510Y-27144517D01*
X31644517Y-26977510D01*
X31761843Y-26816023D01*
X31786424Y-26790732D01*
X31804075Y-26777121D01*
X31856912Y-26753452D01*
X31861307Y-26752626D01*
X31868783Y-26751931D01*
X31869177Y-26751778D01*
X31869571Y-26751857D01*
X31884172Y-26750500D01*
X36073920Y-26750500D01*
X36171462Y-26731096D01*
X36218913Y-26721658D01*
X36355495Y-26665084D01*
X36404729Y-26632186D01*
X36478416Y-26582952D01*
X37261946Y-25799419D01*
X37290197Y-25778273D01*
X37313287Y-25765666D01*
X37372710Y-25750500D01*
X37866532Y-25750500D01*
X37901467Y-25755523D01*
X37920447Y-25761096D01*
X37973994Y-25793199D01*
X37980150Y-25799470D01*
X37997201Y-25821241D01*
X38057285Y-25918652D01*
X38057288Y-25918656D01*
X38181344Y-26042712D01*
X38330666Y-26134814D01*
X38497203Y-26189999D01*
X38599991Y-26200500D01*
X39400008Y-26200499D01*
X39400016Y-26200498D01*
X39400019Y-26200498D01*
X39400027Y-26200497D01*
X39400317Y-26200479D01*
X39401333Y-26200363D01*
X39446459Y-26195753D01*
X39456303Y-26194748D01*
X39456303Y-26194747D01*
X39502797Y-26189999D01*
X39669334Y-26134814D01*
X39818656Y-26042712D01*
X39899717Y-25961650D01*
X39927964Y-25940505D01*
X39941688Y-25933011D01*
X40009946Y-25918160D01*
X40011756Y-25918289D01*
X40069953Y-25937655D01*
X40076471Y-25941844D01*
X40097106Y-25958474D01*
X40181344Y-26042712D01*
X40330666Y-26134814D01*
X40497203Y-26189999D01*
X40599991Y-26200500D01*
X41400008Y-26200499D01*
X41400016Y-26200498D01*
X41400019Y-26200498D01*
X41400027Y-26200497D01*
X41400317Y-26200479D01*
X41401333Y-26200363D01*
X41446459Y-26195753D01*
X41456303Y-26194748D01*
X41456303Y-26194747D01*
X41502797Y-26189999D01*
X41669334Y-26134814D01*
X41818656Y-26042712D01*
X41942712Y-25918656D01*
X42000745Y-25824566D01*
X42023352Y-25797481D01*
X42038065Y-25784247D01*
X42093506Y-25755530D01*
X42102074Y-25753583D01*
X42129551Y-25750500D01*
X46418146Y-25750500D01*
X46453082Y-25755523D01*
X46474452Y-25761798D01*
X46486051Y-25768458D01*
X46495815Y-25770293D01*
X46524661Y-25790629D01*
X46527906Y-25793694D01*
X46543080Y-25810955D01*
X46616754Y-25912361D01*
X46772636Y-26068243D01*
X46772641Y-26068247D01*
X46906949Y-26165826D01*
X46950978Y-26197815D01*
X47067501Y-26257187D01*
X47147393Y-26297895D01*
X47147396Y-26297896D01*
X47147405Y-26297899D01*
X47147419Y-26297904D01*
X47252221Y-26331955D01*
X47357049Y-26366015D01*
X47574778Y-26400500D01*
X47574779Y-26400500D01*
X47795221Y-26400500D01*
X47795222Y-26400500D01*
X48012951Y-26366015D01*
X48222606Y-26297895D01*
X48419022Y-26197815D01*
X48597365Y-26068242D01*
X48635323Y-26030282D01*
X48663563Y-26009142D01*
X48675751Y-26002487D01*
X48744020Y-25987635D01*
X48809484Y-26012050D01*
X48809485Y-26012051D01*
X48813160Y-26014802D01*
X48855032Y-26070735D01*
X48881643Y-26142081D01*
X48881646Y-26142087D01*
X48881649Y-26142093D01*
X48967808Y-26257185D01*
X48967809Y-26257187D01*
X48967813Y-26257191D01*
X48996747Y-26278850D01*
X49082906Y-26343350D01*
X49082913Y-26343354D01*
X49217620Y-26393596D01*
X49217627Y-26393598D01*
X49224468Y-26394333D01*
X49277138Y-26399998D01*
X49277155Y-26399999D01*
X49277172Y-26400000D01*
X49975000Y-26400000D01*
X49975000Y-25560486D01*
X49994685Y-25493447D01*
X50047489Y-25447692D01*
X50116647Y-25437748D01*
X50131086Y-25440710D01*
X50165756Y-25450000D01*
X50284242Y-25450000D01*
X50284244Y-25450000D01*
X50318906Y-25440712D01*
X50388755Y-25442373D01*
X50446618Y-25481535D01*
X50474123Y-25545763D01*
X50475000Y-25560486D01*
X50475000Y-26400000D01*
X51172828Y-26400000D01*
X51172836Y-26400000D01*
X51172847Y-26399999D01*
X51208560Y-26396158D01*
X51232372Y-26393598D01*
X51232379Y-26393596D01*
X51367086Y-26343354D01*
X51367093Y-26343350D01*
X51482187Y-26257190D01*
X51482190Y-26257187D01*
X51568350Y-26142093D01*
X51568354Y-26142086D01*
X51618596Y-26007379D01*
X51618598Y-26007372D01*
X51620720Y-25987635D01*
X51624998Y-25947860D01*
X51625000Y-25947827D01*
X51625000Y-25250000D01*
X50785487Y-25250000D01*
X50718448Y-25230315D01*
X50672693Y-25177511D01*
X50662749Y-25108353D01*
X50665712Y-25093907D01*
X50675000Y-25059244D01*
X50675000Y-24940756D01*
X50665712Y-24906092D01*
X50667375Y-24836243D01*
X50706538Y-24778381D01*
X50770767Y-24750877D01*
X50785487Y-24750000D01*
X51625000Y-24750000D01*
X51625000Y-24052172D01*
X51624998Y-24052138D01*
X51618598Y-23992628D01*
X51618596Y-23992621D01*
X51618596Y-23992620D01*
X51568354Y-23857913D01*
X51568350Y-23857906D01*
X51482190Y-23742812D01*
X51482187Y-23742809D01*
X51482185Y-23742807D01*
X51424317Y-23699487D01*
X51367093Y-23656649D01*
X51367086Y-23656645D01*
X51244691Y-23610995D01*
X51232377Y-23606402D01*
X51232370Y-23606400D01*
X51172852Y-23600000D01*
X51172844Y-23600000D01*
X50475000Y-23600000D01*
X50475000Y-24439513D01*
X50455315Y-24506552D01*
X50402511Y-24552307D01*
X50333353Y-24562251D01*
X50318907Y-24559288D01*
X50284244Y-24550000D01*
X50284243Y-24550000D01*
X50165756Y-24550000D01*
X50131093Y-24559288D01*
X50061243Y-24557625D01*
X50003381Y-24518462D01*
X49975877Y-24454233D01*
X49975000Y-24439513D01*
X49975000Y-23600000D01*
X49277155Y-23600000D01*
X49277146Y-23600000D01*
X49217628Y-23606400D01*
X49217621Y-23606402D01*
X49082910Y-23656646D01*
X49082907Y-23656648D01*
X48967813Y-23742807D01*
X48967810Y-23742810D01*
X48967808Y-23742813D01*
X48881646Y-23857910D01*
X48881643Y-23857917D01*
X48858014Y-23921266D01*
X48851034Y-23934047D01*
X48841099Y-23952241D01*
X48832782Y-23963351D01*
X48776848Y-24005222D01*
X48707178Y-24010211D01*
X48706463Y-24010055D01*
X48702694Y-24009235D01*
X48641370Y-23975763D01*
X48622895Y-23957288D01*
X48597370Y-23931762D01*
X48597369Y-23931761D01*
X48597364Y-23931757D01*
X48597363Y-23931756D01*
X48597358Y-23931752D01*
X48582925Y-23921266D01*
X48429630Y-23809891D01*
X48429618Y-23809883D01*
X48419025Y-23802187D01*
X48419024Y-23802186D01*
X48419022Y-23802185D01*
X48412909Y-23799070D01*
X48412898Y-23799063D01*
X48356098Y-23770123D01*
X48356096Y-23770122D01*
X48222606Y-23702104D01*
X48222602Y-23702102D01*
X48222579Y-23702094D01*
X48012954Y-23633985D01*
X48012955Y-23633985D01*
X47904086Y-23616742D01*
X47795227Y-23599500D01*
X47795222Y-23599500D01*
X47574778Y-23599500D01*
X47574774Y-23599500D01*
X47516716Y-23608696D01*
X47502201Y-23610995D01*
X47357043Y-23633985D01*
X47147419Y-23702094D01*
X47147396Y-23702102D01*
X47147392Y-23702104D01*
X46950972Y-23802187D01*
X46772658Y-23931739D01*
X46772629Y-23931761D01*
X46772627Y-23931763D01*
X46616758Y-24087633D01*
X46616755Y-24087635D01*
X46546774Y-24183959D01*
X46522176Y-24209270D01*
X46504537Y-24222872D01*
X46451715Y-24246544D01*
X46449749Y-24246913D01*
X46447332Y-24247367D01*
X46439829Y-24248066D01*
X46439429Y-24248222D01*
X46439028Y-24248140D01*
X46424436Y-24249500D01*
X42133468Y-24249500D01*
X42098529Y-24244476D01*
X42079548Y-24238902D01*
X42066374Y-24231002D01*
X42054055Y-24228203D01*
X42025998Y-24206792D01*
X42019844Y-24200523D01*
X42002794Y-24178754D01*
X42000739Y-24175422D01*
X41942712Y-24081344D01*
X41818656Y-23957288D01*
X41669334Y-23865186D01*
X41511265Y-23812807D01*
X41508445Y-23811641D01*
X41502792Y-23809999D01*
X41400019Y-23799500D01*
X41400010Y-23799500D01*
X40599998Y-23799500D01*
X40599980Y-23799501D01*
X40599972Y-23799501D01*
X40599953Y-23799503D01*
X40497197Y-23810000D01*
X40497193Y-23810001D01*
X40497032Y-23810056D01*
X40330667Y-23865185D01*
X40330665Y-23865186D01*
X40330663Y-23865187D01*
X40256002Y-23911238D01*
X40181338Y-23957291D01*
X40100285Y-24038345D01*
X40100282Y-24038346D01*
X40100282Y-24038348D01*
X40072027Y-24059498D01*
X40058309Y-24066988D01*
X39990051Y-24081839D01*
X39990036Y-24081837D01*
X39990036Y-24081838D01*
X39990035Y-24081837D01*
X39988245Y-24081710D01*
X39930044Y-24062342D01*
X39923529Y-24058155D01*
X39902893Y-24041525D01*
X39818657Y-23957289D01*
X39818656Y-23957288D01*
X39669334Y-23865186D01*
X39511265Y-23812807D01*
X39508445Y-23811641D01*
X39502792Y-23809999D01*
X39400019Y-23799500D01*
X39400010Y-23799500D01*
X38599998Y-23799500D01*
X38599980Y-23799501D01*
X38599972Y-23799501D01*
X38599953Y-23799503D01*
X38497197Y-23810000D01*
X38497193Y-23810001D01*
X38497032Y-23810056D01*
X38330667Y-23865185D01*
X38330665Y-23865186D01*
X38330663Y-23865187D01*
X38239745Y-23921266D01*
X38181340Y-23957290D01*
X38057287Y-24081343D01*
X37999260Y-24175422D01*
X37999259Y-24175424D01*
X37976644Y-24202521D01*
X37961938Y-24215748D01*
X37906498Y-24244469D01*
X37897932Y-24246416D01*
X37870449Y-24249500D01*
X36926076Y-24249500D01*
X36897242Y-24255234D01*
X36833295Y-24267950D01*
X36833261Y-24267961D01*
X36781093Y-24278339D01*
X36781083Y-24278342D01*
X36701081Y-24311479D01*
X36701082Y-24311480D01*
X36644505Y-24334915D01*
X36643130Y-24335833D01*
X36643129Y-24335834D01*
X36562372Y-24389795D01*
X36562370Y-24389796D01*
X36521594Y-24417040D01*
X36521583Y-24417048D01*
X36521576Y-24417053D01*
X36521575Y-24417054D01*
X35738058Y-25200573D01*
X35726240Y-25209420D01*
X35709807Y-25221722D01*
X35686719Y-25234330D01*
X35627289Y-25249500D01*
X31890461Y-25249500D01*
X31855523Y-25244476D01*
X31834151Y-25238200D01*
X31783945Y-25209371D01*
X31780702Y-25206308D01*
X31765529Y-25189048D01*
X31754374Y-25173695D01*
X31754374Y-25173694D01*
X31754372Y-25173693D01*
X31671219Y-25059243D01*
X31644517Y-25022490D01*
X31477510Y-24855483D01*
X31304546Y-24729817D01*
X31261882Y-24674488D01*
X31255903Y-24604874D01*
X31288509Y-24543080D01*
X31349348Y-24508722D01*
X31377433Y-24505500D01*
X32948640Y-24505500D01*
X32958786Y-24504955D01*
X33002678Y-24502603D01*
X33002686Y-24502602D01*
X33002688Y-24502602D01*
X33002689Y-24502602D01*
X33009682Y-24501849D01*
X33029036Y-24499769D01*
X33029046Y-24499767D01*
X33029049Y-24499767D01*
X33038648Y-24498211D01*
X33082448Y-24491114D01*
X33217257Y-24440832D01*
X33278580Y-24407347D01*
X33393761Y-24321123D01*
X35321123Y-22393761D01*
X35357288Y-22353500D01*
X35373922Y-22332858D01*
X35405567Y-22288974D01*
X35465338Y-22158097D01*
X35485023Y-22091058D01*
X35485024Y-22091054D01*
X35505500Y-21948638D01*
X35505500Y-21051362D01*
X35502603Y-20997322D01*
X35499769Y-20970964D01*
X35491114Y-20917552D01*
X35440832Y-20782743D01*
X35407347Y-20721420D01*
X35321123Y-20606239D01*
X35321118Y-20606234D01*
X35321113Y-20606228D01*
X33393776Y-18678892D01*
X33393761Y-18678877D01*
X33393737Y-18678855D01*
X33353519Y-18642728D01*
X33353507Y-18642718D01*
X33332856Y-18626076D01*
X33288974Y-18594433D01*
X33158100Y-18534663D01*
X33091055Y-18514976D01*
X33043582Y-18508150D01*
X32948638Y-18494500D01*
X32948636Y-18494500D01*
X18629500Y-18494500D01*
X18562461Y-18474815D01*
X18516706Y-18422011D01*
X18505500Y-18370500D01*
X18505500Y-13260745D01*
X18525185Y-13193706D01*
X18541819Y-13173064D01*
X20173064Y-11541819D01*
X20234387Y-11508334D01*
X20260745Y-11505500D01*
X22624462Y-11505500D01*
X22691501Y-11525185D01*
X22737256Y-11577989D01*
X22747200Y-11647147D01*
X22724779Y-11702386D01*
X22716659Y-11713561D01*
X22661112Y-11822576D01*
X22609433Y-11924003D01*
X22536446Y-12148631D01*
X22536445Y-12148634D01*
X22536445Y-12148636D01*
X22499500Y-12381896D01*
X22499500Y-12618102D01*
X22536445Y-12851362D01*
X22536446Y-12851368D01*
X22609433Y-13075996D01*
X22683653Y-13221659D01*
X22716657Y-13286433D01*
X22855483Y-13477510D01*
X23022490Y-13644517D01*
X23213567Y-13783343D01*
X23312991Y-13834002D01*
X23424003Y-13890566D01*
X23424876Y-13891011D01*
X23428630Y-13892070D01*
X23476335Y-13907569D01*
X23544410Y-13929688D01*
X23544411Y-13929689D01*
X23544412Y-13929689D01*
X23648631Y-13963553D01*
X23881903Y-14000500D01*
X23881908Y-14000500D01*
X24118096Y-14000500D01*
X24118097Y-14000500D01*
X24351368Y-13963553D01*
X24575992Y-13890568D01*
X24786433Y-13783343D01*
X24977510Y-13644517D01*
X25144517Y-13477510D01*
X25261843Y-13316023D01*
X25286424Y-13290732D01*
X25304075Y-13277121D01*
X25356912Y-13253452D01*
X25361307Y-13252626D01*
X25368783Y-13251931D01*
X25369177Y-13251778D01*
X25369571Y-13251857D01*
X25384172Y-13250500D01*
X29109539Y-13250500D01*
X29144475Y-13255523D01*
X29165845Y-13261798D01*
X29177435Y-13268452D01*
X29187187Y-13270282D01*
X29216037Y-13290613D01*
X29219279Y-13293674D01*
X29234467Y-13310948D01*
X29355483Y-13477510D01*
X29522490Y-13644517D01*
X29713567Y-13783343D01*
X29812991Y-13834002D01*
X29924003Y-13890566D01*
X29924876Y-13891011D01*
X29928630Y-13892070D01*
X29976335Y-13907569D01*
X30044410Y-13929688D01*
X30044411Y-13929689D01*
X30044412Y-13929689D01*
X30148631Y-13963553D01*
X30381903Y-14000500D01*
X30381908Y-14000500D01*
X30618096Y-14000500D01*
X30618097Y-14000500D01*
X30851368Y-13963553D01*
X31075992Y-13890568D01*
X31286433Y-13783343D01*
X31477510Y-13644517D01*
X31644517Y-13477510D01*
X31761843Y-13316023D01*
X31786424Y-13290732D01*
X31804075Y-13277121D01*
X31856912Y-13253452D01*
X31861307Y-13252626D01*
X31868783Y-13251931D01*
X31869177Y-13251778D01*
X31869571Y-13251857D01*
X31884172Y-13250500D01*
X35033920Y-13250500D01*
X35131462Y-13231096D01*
X35178913Y-13221658D01*
X35315495Y-13165084D01*
X35364729Y-13132186D01*
X35438416Y-13082952D01*
X37271946Y-11249419D01*
X37300197Y-11228273D01*
X37323287Y-11215666D01*
X37382710Y-11200500D01*
X37554485Y-11200500D01*
X37554486Y-11200500D01*
X37741118Y-11170940D01*
X37920832Y-11112547D01*
X38089199Y-11026760D01*
X38242073Y-10915690D01*
X38375690Y-10782073D01*
X38486760Y-10629199D01*
X38572547Y-10460832D01*
X38630940Y-10281118D01*
X38647676Y-10175450D01*
X38660500Y-10094486D01*
X38660500Y-9905513D01*
X38660499Y-9905507D01*
X41339500Y-9905507D01*
X41339500Y-10094491D01*
X41361013Y-10230315D01*
X41369059Y-10281118D01*
X41427454Y-10460836D01*
X41427455Y-10460837D01*
X41427456Y-10460841D01*
X41466570Y-10537604D01*
X41466570Y-10537606D01*
X41466571Y-10537606D01*
X41513240Y-10629199D01*
X41624310Y-10782073D01*
X41757927Y-10915690D01*
X41844229Y-10978393D01*
X41910796Y-11026757D01*
X41910797Y-11026757D01*
X41910801Y-11026760D01*
X41990347Y-11067290D01*
X42072718Y-11109261D01*
X42074310Y-11110193D01*
X42078034Y-11111997D01*
X42080024Y-11112986D01*
X42083777Y-11114044D01*
X42170079Y-11142086D01*
X42258881Y-11170940D01*
X42445514Y-11200500D01*
X42445519Y-11200500D01*
X42634485Y-11200500D01*
X42634486Y-11200500D01*
X42821118Y-11170940D01*
X43000832Y-11112547D01*
X43169199Y-11026760D01*
X43322073Y-10915690D01*
X43438344Y-10799418D01*
X43466589Y-10778275D01*
X43489681Y-10765667D01*
X43549106Y-10750500D01*
X46418146Y-10750500D01*
X46453082Y-10755523D01*
X46474452Y-10761798D01*
X46524661Y-10790629D01*
X46527906Y-10793694D01*
X46543080Y-10810955D01*
X46616754Y-10912361D01*
X46706881Y-11002488D01*
X46772636Y-11068243D01*
X46772660Y-11068261D01*
X46921969Y-11176740D01*
X46921975Y-11176743D01*
X46928192Y-11181260D01*
X46950978Y-11197815D01*
X47067501Y-11257187D01*
X47147393Y-11297895D01*
X47147396Y-11297896D01*
X47147405Y-11297899D01*
X47147419Y-11297904D01*
X47252221Y-11331955D01*
X47357049Y-11366015D01*
X47574778Y-11400500D01*
X47574779Y-11400500D01*
X47795221Y-11400500D01*
X47795222Y-11400500D01*
X48012951Y-11366015D01*
X48222606Y-11297895D01*
X48419022Y-11197815D01*
X48597365Y-11068242D01*
X48635323Y-11030282D01*
X48663563Y-11009142D01*
X48675751Y-11002487D01*
X48744020Y-10987635D01*
X48809484Y-11012050D01*
X48809485Y-11012051D01*
X48813160Y-11014802D01*
X48855032Y-11070735D01*
X48881643Y-11142081D01*
X48881646Y-11142087D01*
X48881649Y-11142093D01*
X48967808Y-11257185D01*
X48967809Y-11257187D01*
X48967813Y-11257191D01*
X48996747Y-11278850D01*
X49082906Y-11343350D01*
X49082913Y-11343354D01*
X49217620Y-11393596D01*
X49217627Y-11393598D01*
X49224468Y-11394333D01*
X49277138Y-11399998D01*
X49277155Y-11399999D01*
X49277172Y-11400000D01*
X49975000Y-11400000D01*
X49975000Y-10560486D01*
X49994685Y-10493447D01*
X50047489Y-10447692D01*
X50116647Y-10437748D01*
X50131086Y-10440710D01*
X50165756Y-10450000D01*
X50284242Y-10450000D01*
X50284244Y-10450000D01*
X50318906Y-10440712D01*
X50388755Y-10442373D01*
X50446618Y-10481535D01*
X50474123Y-10545763D01*
X50475000Y-10560486D01*
X50475000Y-11400000D01*
X51172828Y-11400000D01*
X51172836Y-11400000D01*
X51172847Y-11399999D01*
X51208560Y-11396158D01*
X51232372Y-11393598D01*
X51232379Y-11393596D01*
X51367086Y-11343354D01*
X51367093Y-11343350D01*
X51482187Y-11257190D01*
X51482190Y-11257187D01*
X51568350Y-11142093D01*
X51568354Y-11142086D01*
X51618596Y-11007379D01*
X51618598Y-11007372D01*
X51621090Y-10984198D01*
X51624998Y-10947860D01*
X51625000Y-10947827D01*
X51625000Y-10250000D01*
X50785487Y-10250000D01*
X50718448Y-10230315D01*
X50672693Y-10177511D01*
X50662749Y-10108353D01*
X50665712Y-10093907D01*
X50675000Y-10059244D01*
X50675000Y-9940756D01*
X50665712Y-9906092D01*
X50667375Y-9836243D01*
X50706538Y-9778381D01*
X50770767Y-9750877D01*
X50785487Y-9750000D01*
X51625000Y-9750000D01*
X51625000Y-9052172D01*
X51624998Y-9052138D01*
X51618598Y-8992628D01*
X51618596Y-8992621D01*
X51618596Y-8992620D01*
X51568354Y-8857913D01*
X51568350Y-8857906D01*
X51482190Y-8742812D01*
X51482187Y-8742809D01*
X51482185Y-8742807D01*
X51414054Y-8691804D01*
X51367093Y-8656649D01*
X51367088Y-8656646D01*
X51367089Y-8656646D01*
X51232377Y-8606402D01*
X51232370Y-8606400D01*
X51172852Y-8600000D01*
X51172844Y-8600000D01*
X50475000Y-8600000D01*
X50475000Y-9439513D01*
X50455315Y-9506552D01*
X50402511Y-9552307D01*
X50333353Y-9562251D01*
X50318907Y-9559288D01*
X50284244Y-9550000D01*
X50284243Y-9550000D01*
X50165756Y-9550000D01*
X50131093Y-9559288D01*
X50061243Y-9557625D01*
X50003381Y-9518462D01*
X49975877Y-9454233D01*
X49975000Y-9439513D01*
X49975000Y-8600000D01*
X49277155Y-8600000D01*
X49277146Y-8600000D01*
X49217628Y-8606400D01*
X49217621Y-8606402D01*
X49082910Y-8656646D01*
X49082907Y-8656648D01*
X48967813Y-8742807D01*
X48967810Y-8742810D01*
X48967808Y-8742813D01*
X48881646Y-8857910D01*
X48881643Y-8857917D01*
X48858014Y-8921266D01*
X48845480Y-8944218D01*
X48841099Y-8952241D01*
X48832782Y-8963351D01*
X48776848Y-9005222D01*
X48707178Y-9010211D01*
X48706463Y-9010055D01*
X48702694Y-9009235D01*
X48641370Y-8975763D01*
X48622234Y-8956627D01*
X48597370Y-8931762D01*
X48597369Y-8931761D01*
X48597364Y-8931757D01*
X48597363Y-8931756D01*
X48597358Y-8931752D01*
X48582925Y-8921266D01*
X48429630Y-8809891D01*
X48429618Y-8809883D01*
X48419025Y-8802187D01*
X48419024Y-8802186D01*
X48419022Y-8802185D01*
X48412909Y-8799070D01*
X48412898Y-8799063D01*
X48356098Y-8770123D01*
X48356096Y-8770122D01*
X48222606Y-8702104D01*
X48222602Y-8702102D01*
X48222579Y-8702094D01*
X48012954Y-8633985D01*
X48012955Y-8633985D01*
X47904086Y-8616742D01*
X47795227Y-8599500D01*
X47795222Y-8599500D01*
X47574778Y-8599500D01*
X47574774Y-8599500D01*
X47516716Y-8608696D01*
X47502201Y-8610995D01*
X47357043Y-8633985D01*
X47147419Y-8702094D01*
X47147396Y-8702102D01*
X47147392Y-8702104D01*
X46950972Y-8802187D01*
X46772658Y-8931739D01*
X46772629Y-8931761D01*
X46772627Y-8931763D01*
X46616758Y-9087633D01*
X46616755Y-9087635D01*
X46546774Y-9183959D01*
X46522176Y-9209270D01*
X46504537Y-9222872D01*
X46451715Y-9246544D01*
X46449749Y-9246913D01*
X46447332Y-9247367D01*
X46439829Y-9248066D01*
X46439429Y-9248222D01*
X46439028Y-9248140D01*
X46424436Y-9249500D01*
X43556455Y-9249500D01*
X43521519Y-9244477D01*
X43496277Y-9237065D01*
X43443532Y-9205769D01*
X43322075Y-9084312D01*
X43322073Y-9084310D01*
X43169199Y-8973240D01*
X43099976Y-8937969D01*
X43000836Y-8887454D01*
X42821118Y-8829059D01*
X42821112Y-8829058D01*
X42634491Y-8799500D01*
X42634486Y-8799500D01*
X42634481Y-8799500D01*
X42445519Y-8799500D01*
X42445514Y-8799500D01*
X42445509Y-8799500D01*
X42258886Y-8829058D01*
X42258884Y-8829058D01*
X42258881Y-8829059D01*
X42079163Y-8887454D01*
X42022334Y-8916410D01*
X41910800Y-8973239D01*
X41869197Y-9003467D01*
X41769798Y-9075685D01*
X41762417Y-9079818D01*
X41619818Y-9222417D01*
X41615688Y-9229793D01*
X41601374Y-9249496D01*
X41601371Y-9249500D01*
X41513239Y-9370800D01*
X41472709Y-9450345D01*
X41427454Y-9539163D01*
X41369059Y-9718881D01*
X41369059Y-9718883D01*
X41369058Y-9718886D01*
X41339500Y-9905507D01*
X38660499Y-9905507D01*
X38630940Y-9718881D01*
X38586031Y-9580667D01*
X38572547Y-9539168D01*
X38572545Y-9539165D01*
X38572545Y-9539163D01*
X38570300Y-9534757D01*
X38569991Y-9533965D01*
X38569260Y-9532716D01*
X38555928Y-9506552D01*
X38527290Y-9450347D01*
X38486760Y-9370801D01*
X38486758Y-9370798D01*
X38486757Y-9370796D01*
X38454514Y-9326418D01*
X38375690Y-9217927D01*
X38242073Y-9084310D01*
X38089199Y-8973240D01*
X38019976Y-8937969D01*
X37920836Y-8887454D01*
X37741118Y-8829059D01*
X37741112Y-8829058D01*
X37554491Y-8799500D01*
X37554486Y-8799500D01*
X37554481Y-8799500D01*
X37365519Y-8799500D01*
X37365514Y-8799500D01*
X37365509Y-8799500D01*
X37178886Y-8829058D01*
X37178884Y-8829058D01*
X37178881Y-8829059D01*
X36999163Y-8887454D01*
X36942334Y-8916410D01*
X36830800Y-8973239D01*
X36789197Y-9003467D01*
X36789196Y-9003467D01*
X36700985Y-9067556D01*
X36635179Y-9091036D01*
X36567125Y-9075210D01*
X36518430Y-9025105D01*
X36504555Y-8956627D01*
X36505359Y-8949615D01*
X36505500Y-8948638D01*
X36505500Y-7051362D01*
X36502603Y-6997322D01*
X36499769Y-6970964D01*
X36491114Y-6917552D01*
X36440832Y-6782743D01*
X36407347Y-6721420D01*
X36321123Y-6606239D01*
X36321118Y-6606234D01*
X36321113Y-6606228D01*
X34639837Y-4924953D01*
X34555200Y-4840316D01*
X51749500Y-4840316D01*
X51749500Y-5159683D01*
X51760725Y-5273665D01*
X51780802Y-5477519D01*
X51780802Y-5477521D01*
X51843103Y-5790733D01*
X51843106Y-5790744D01*
X51935821Y-6096387D01*
X52057758Y-6390767D01*
X52057993Y-6391346D01*
X52058038Y-6391441D01*
X52058040Y-6391446D01*
X52058042Y-6391451D01*
X52058045Y-6391456D01*
X52208571Y-6673072D01*
X52208583Y-6673093D01*
X52208584Y-6673094D01*
X52208601Y-6673122D01*
X52386012Y-6938638D01*
X52386015Y-6938642D01*
X52386030Y-6938663D01*
X52386039Y-6938674D01*
X52588642Y-7185545D01*
X52814452Y-7411355D01*
X52814527Y-7411422D01*
X52815048Y-7411844D01*
X53061344Y-7613975D01*
X53061351Y-7613980D01*
X53061361Y-7613987D01*
X53061378Y-7613998D01*
X53061406Y-7614018D01*
X53322515Y-7788484D01*
X53322526Y-7788490D01*
X53326877Y-7791398D01*
X53326882Y-7791401D01*
X53326894Y-7791409D01*
X53326903Y-7791413D01*
X53326905Y-7791415D01*
X53329607Y-7792859D01*
X53330054Y-7793135D01*
X53330874Y-7793536D01*
X53608548Y-7941957D01*
X53612022Y-7943814D01*
X53616996Y-7945457D01*
X53903619Y-8064180D01*
X54209240Y-8156889D01*
X54522477Y-8219196D01*
X54840313Y-8250500D01*
X54840316Y-8250500D01*
X55159684Y-8250500D01*
X55159687Y-8250500D01*
X55477523Y-8219196D01*
X55790760Y-8156889D01*
X56096381Y-8064180D01*
X56391444Y-7941961D01*
X56673106Y-7791409D01*
X56938656Y-7613975D01*
X57185535Y-7411366D01*
X57411366Y-7185535D01*
X57613975Y-6938656D01*
X57791409Y-6673106D01*
X57941961Y-6391444D01*
X58064180Y-6096381D01*
X58156889Y-5790760D01*
X58219196Y-5477523D01*
X58250500Y-5159687D01*
X58250500Y-4840313D01*
X58219196Y-4522477D01*
X58156889Y-4209240D01*
X58064180Y-3903619D01*
X57941961Y-3608556D01*
X57791409Y-3326894D01*
X57791398Y-3326877D01*
X57613987Y-3061361D01*
X57613980Y-3061351D01*
X57613975Y-3061344D01*
X57411855Y-2815060D01*
X57411357Y-2814454D01*
X57185545Y-2588642D01*
X56938674Y-2386039D01*
X56938663Y-2386030D01*
X56938642Y-2386015D01*
X56938638Y-2386012D01*
X56673122Y-2208601D01*
X56673109Y-2208593D01*
X56673093Y-2208583D01*
X56673072Y-2208571D01*
X56450258Y-2089475D01*
X56391451Y-2058042D01*
X56391446Y-2058040D01*
X56391441Y-2058038D01*
X56391346Y-2057993D01*
X56390767Y-2057758D01*
X56096387Y-1935821D01*
X55790744Y-1843106D01*
X55790733Y-1843103D01*
X55582429Y-1801670D01*
X55557617Y-1788691D01*
X55238141Y-1757227D01*
X55232161Y-1756638D01*
X55159687Y-1749500D01*
X55159684Y-1749500D01*
X54840315Y-1749500D01*
X54840313Y-1749500D01*
X54828386Y-1750674D01*
X54767822Y-1756638D01*
X54767822Y-1756639D01*
X54745825Y-1758805D01*
X54522477Y-1780802D01*
X54209265Y-1843103D01*
X54209254Y-1843106D01*
X53903611Y-1935821D01*
X53609231Y-2057758D01*
X53608656Y-2057992D01*
X53608542Y-2058045D01*
X53326926Y-2208571D01*
X53326905Y-2208583D01*
X53326886Y-2208595D01*
X53061356Y-2386015D01*
X53061335Y-2386030D01*
X53061324Y-2386039D01*
X52814453Y-2588642D01*
X52588642Y-2814453D01*
X52386039Y-3061324D01*
X52386030Y-3061335D01*
X52386015Y-3061356D01*
X52208595Y-3326886D01*
X52208583Y-3326905D01*
X52208571Y-3326926D01*
X52058045Y-3608542D01*
X52057992Y-3608656D01*
X52057758Y-3609231D01*
X51935821Y-3903611D01*
X51843106Y-4209254D01*
X51843103Y-4209265D01*
X51780802Y-4522477D01*
X51780802Y-4522479D01*
X51765398Y-4678892D01*
X51749500Y-4840316D01*
X34555200Y-4840316D01*
X34393776Y-4678892D01*
X34393761Y-4678877D01*
X34353500Y-4642712D01*
X34332858Y-4626078D01*
X34332856Y-4626076D01*
X34288974Y-4594433D01*
X34158100Y-4534663D01*
X34091055Y-4514976D01*
X34043582Y-4508150D01*
X33948638Y-4494500D01*
X33948636Y-4494500D01*
X19044897Y-4494500D01*
X19044894Y-4494500D01*
X19038653Y-4494692D01*
X19013679Y-4495464D01*
X18998412Y-4496408D01*
X18967325Y-4499296D01*
X18828512Y-4537168D01*
X18764408Y-4564965D01*
X18764407Y-4564966D01*
X18641898Y-4640404D01*
X18641889Y-4640411D01*
X16601179Y-6341004D01*
X15354922Y-7379551D01*
X15354921Y-7379552D01*
X15218050Y-7493611D01*
X15218044Y-7493616D01*
X13780219Y-8691804D01*
X12721016Y-9574471D01*
X12720995Y-9574490D01*
X12665786Y-9628128D01*
X12640859Y-9656342D01*
X12594433Y-9717741D01*
X12534663Y-9848615D01*
X12514976Y-9915660D01*
X12494500Y-10058079D01*
X12494500Y-25958658D01*
X12494829Y-25976921D01*
X12494830Y-25976937D01*
X12495154Y-25985895D01*
X12495333Y-25989182D01*
X12496145Y-26004144D01*
X12496145Y-26004146D01*
X12526854Y-26144697D01*
X12526860Y-26144719D01*
X12551329Y-26210142D01*
X12551330Y-26210144D01*
X12551331Y-26210146D01*
X12551332Y-26210148D01*
X12620400Y-26336366D01*
X13372400Y-27339033D01*
X13372407Y-27339041D01*
X13406980Y-27380354D01*
X13406981Y-27380354D01*
X13411479Y-27385181D01*
X13424971Y-27399660D01*
X13425005Y-27399694D01*
X13463756Y-27437070D01*
X13463763Y-27437076D01*
X13463765Y-27437078D01*
X13584805Y-27514865D01*
X13584810Y-27514867D01*
X13584815Y-27514870D01*
X13613528Y-27527982D01*
X13647938Y-27543697D01*
X13648349Y-27543886D01*
X13648358Y-27543888D01*
X13648361Y-27543890D01*
X13648364Y-27543892D01*
X13786417Y-27584426D01*
X13881085Y-27584425D01*
X13948123Y-27604109D01*
X13993879Y-27656912D01*
X14003823Y-27726071D01*
X13997307Y-27751651D01*
X13995068Y-27757669D01*
X13995067Y-27757673D01*
X13980279Y-27825948D01*
X13980279Y-27825952D01*
X13970145Y-27969471D01*
X13970145Y-27969479D01*
X13989022Y-28055878D01*
X13984101Y-28125574D01*
X13942280Y-28181545D01*
X13876837Y-28206021D01*
X13848485Y-28204819D01*
X13818055Y-28200000D01*
X13818052Y-28200000D01*
X12850000Y-28200000D01*
X12850000Y-29076000D01*
X12830315Y-29143039D01*
X12777511Y-29188794D01*
X12726000Y-29200000D01*
X12474000Y-29200000D01*
X12406961Y-29180315D01*
X12361206Y-29127511D01*
X12350000Y-29076000D01*
X12350000Y-28200000D01*
X11381948Y-28200000D01*
X11381943Y-28200000D01*
X11148755Y-28236933D01*
X10924194Y-28309898D01*
X10713827Y-28417085D01*
X10604846Y-28496264D01*
X10522813Y-28555866D01*
X10522811Y-28555868D01*
X10522810Y-28555868D01*
X10355868Y-28722810D01*
X10355868Y-28722811D01*
X10355866Y-28722813D01*
X10296264Y-28804846D01*
X10217085Y-28913827D01*
X10109898Y-29124194D01*
X10036933Y-29348755D01*
X10020898Y-29450000D01*
X500500Y-29450000D01*
X500500Y-23781941D01*
X7800000Y-23781941D01*
X7800000Y-23781947D01*
X7800000Y-24750000D01*
X8676000Y-24750000D01*
X8743039Y-24769685D01*
X8788794Y-24822489D01*
X8800000Y-24874000D01*
X8800000Y-25126000D01*
X8780315Y-25193039D01*
X8727511Y-25238794D01*
X8676000Y-25250000D01*
X7800000Y-25250000D01*
X7800000Y-26218057D01*
X7836933Y-26451243D01*
X7836934Y-26451247D01*
X7909897Y-26675802D01*
X8017085Y-26886171D01*
X8155866Y-27077186D01*
X8322813Y-27244133D01*
X8513828Y-27382914D01*
X8724195Y-27490102D01*
X8948351Y-27562935D01*
X8948727Y-27563059D01*
X8948750Y-27563065D01*
X9050000Y-27579101D01*
X9050000Y-26712250D01*
X9069685Y-26645211D01*
X9122489Y-26599456D01*
X9191647Y-26589512D01*
X9206093Y-26592475D01*
X9234174Y-26600000D01*
X9365825Y-26600000D01*
X9365826Y-26600000D01*
X9393905Y-26592476D01*
X9463755Y-26594137D01*
X9521618Y-26633299D01*
X9549123Y-26697527D01*
X9550000Y-26712250D01*
X9550000Y-27579099D01*
X9550000Y-27579100D01*
X9651249Y-27563065D01*
X9651254Y-27563063D01*
X9651256Y-27563063D01*
X9651415Y-27563010D01*
X9875804Y-27490102D01*
X10086171Y-27382914D01*
X10277186Y-27244133D01*
X10444133Y-27077186D01*
X10582914Y-26886171D01*
X10690102Y-26675802D01*
X10763065Y-26451247D01*
X10800000Y-26218052D01*
X10800000Y-25250000D01*
X9924000Y-25250000D01*
X9856961Y-25230315D01*
X9811206Y-25177511D01*
X9800000Y-25126000D01*
X9800000Y-24874000D01*
X9819685Y-24806961D01*
X9872489Y-24761206D01*
X9924000Y-24750000D01*
X10800000Y-24750000D01*
X10800000Y-23781947D01*
X10793802Y-23742813D01*
X10763065Y-23548752D01*
X10690102Y-23324197D01*
X10582914Y-23113828D01*
X10444133Y-22922813D01*
X10444129Y-22922809D01*
X10277190Y-22755869D01*
X10277189Y-22755868D01*
X10267906Y-22749124D01*
X10086171Y-22617085D01*
X9875802Y-22509897D01*
X9651247Y-22436934D01*
X9651245Y-22436933D01*
X9651243Y-22436933D01*
X9550000Y-22420897D01*
X9550000Y-23287749D01*
X9530315Y-23354788D01*
X9477511Y-23400543D01*
X9408353Y-23410487D01*
X9393908Y-23407524D01*
X9365828Y-23400000D01*
X9365826Y-23400000D01*
X9234174Y-23400000D01*
X9234171Y-23400000D01*
X9206092Y-23407524D01*
X9136242Y-23405861D01*
X9078380Y-23366698D01*
X9050877Y-23302469D01*
X9050000Y-23287749D01*
X9050000Y-22420897D01*
X9049999Y-22420897D01*
X8948755Y-22436933D01*
X8724194Y-22509898D01*
X8513827Y-22617085D01*
X8404846Y-22696264D01*
X8322813Y-22755866D01*
X8322811Y-22755868D01*
X8322810Y-22755868D01*
X8155868Y-22922810D01*
X8155868Y-22922811D01*
X8155866Y-22922813D01*
X8096264Y-23004846D01*
X8017085Y-23113827D01*
X7909898Y-23324194D01*
X7836933Y-23548755D01*
X7800000Y-23781941D01*
X500500Y-23781941D01*
X500500Y-4840316D01*
X1749500Y-4840316D01*
X1749500Y-5159683D01*
X1760725Y-5273665D01*
X1780802Y-5477519D01*
X1780802Y-5477521D01*
X1843103Y-5790733D01*
X1843106Y-5790744D01*
X1935821Y-6096387D01*
X2057758Y-6390767D01*
X2057993Y-6391346D01*
X2058038Y-6391441D01*
X2058040Y-6391446D01*
X2058042Y-6391451D01*
X2058045Y-6391456D01*
X2208571Y-6673072D01*
X2208583Y-6673093D01*
X2208584Y-6673094D01*
X2208601Y-6673122D01*
X2386012Y-6938638D01*
X2386015Y-6938642D01*
X2386030Y-6938663D01*
X2386039Y-6938674D01*
X2588642Y-7185545D01*
X2814452Y-7411355D01*
X2814527Y-7411422D01*
X2815048Y-7411844D01*
X3061344Y-7613975D01*
X3061351Y-7613980D01*
X3061361Y-7613987D01*
X3061378Y-7613998D01*
X3061406Y-7614018D01*
X3322515Y-7788484D01*
X3322526Y-7788490D01*
X3326877Y-7791398D01*
X3326882Y-7791401D01*
X3326894Y-7791409D01*
X3326903Y-7791413D01*
X3326905Y-7791415D01*
X3329607Y-7792859D01*
X3330054Y-7793135D01*
X3330874Y-7793536D01*
X3608548Y-7941957D01*
X3612022Y-7943814D01*
X3616996Y-7945457D01*
X3903619Y-8064180D01*
X4209240Y-8156889D01*
X4522477Y-8219196D01*
X4840313Y-8250500D01*
X4840316Y-8250500D01*
X5159684Y-8250500D01*
X5159687Y-8250500D01*
X5477523Y-8219196D01*
X5790760Y-8156889D01*
X6096381Y-8064180D01*
X6391444Y-7941961D01*
X6673106Y-7791409D01*
X6938656Y-7613975D01*
X7185535Y-7411366D01*
X7411366Y-7185535D01*
X7613975Y-6938656D01*
X7791409Y-6673106D01*
X7941961Y-6391444D01*
X8064180Y-6096381D01*
X8156889Y-5790760D01*
X8219196Y-5477523D01*
X8250500Y-5159687D01*
X8250500Y-4840313D01*
X8219196Y-4522477D01*
X8156889Y-4209240D01*
X8064180Y-3903619D01*
X7941961Y-3608556D01*
X7791409Y-3326894D01*
X7791398Y-3326877D01*
X7613987Y-3061361D01*
X7613980Y-3061351D01*
X7613975Y-3061344D01*
X7411855Y-2815060D01*
X7411357Y-2814454D01*
X7185545Y-2588642D01*
X6938674Y-2386039D01*
X6938663Y-2386030D01*
X6938642Y-2386015D01*
X6938638Y-2386012D01*
X6673122Y-2208601D01*
X6673109Y-2208593D01*
X6673093Y-2208583D01*
X6673072Y-2208571D01*
X6450258Y-2089475D01*
X6391451Y-2058042D01*
X6391446Y-2058040D01*
X6391441Y-2058038D01*
X6391346Y-2057993D01*
X6390767Y-2057758D01*
X6096387Y-1935821D01*
X5790744Y-1843106D01*
X5790733Y-1843103D01*
X5582429Y-1801670D01*
X5557617Y-1788691D01*
X5238141Y-1757227D01*
X5232161Y-1756638D01*
X5159687Y-1749500D01*
X5159684Y-1749500D01*
X4840315Y-1749500D01*
X4840313Y-1749500D01*
X4828386Y-1750674D01*
X4767822Y-1756638D01*
X4767822Y-1756639D01*
X4745825Y-1758805D01*
X4522477Y-1780802D01*
X4209265Y-1843103D01*
X4209254Y-1843106D01*
X3903611Y-1935821D01*
X3609231Y-2057758D01*
X3608656Y-2057992D01*
X3608542Y-2058045D01*
X3326926Y-2208571D01*
X3326905Y-2208583D01*
X3326886Y-2208595D01*
X3061356Y-2386015D01*
X3061335Y-2386030D01*
X3061324Y-2386039D01*
X2814453Y-2588642D01*
X2588642Y-2814453D01*
X2386039Y-3061324D01*
X2386030Y-3061335D01*
X2386015Y-3061356D01*
X2208595Y-3326886D01*
X2208583Y-3326905D01*
X2208571Y-3326926D01*
X2058045Y-3608542D01*
X2057992Y-3608656D01*
X2057758Y-3609231D01*
X1935821Y-3903611D01*
X1843106Y-4209254D01*
X1843103Y-4209265D01*
X1780802Y-4522477D01*
X1780802Y-4522479D01*
X1765398Y-4678892D01*
X1749500Y-4840316D01*
X500500Y-4840316D01*
X500500Y-2006642D01*
X500579Y-2002218D01*
X500737Y-1997792D01*
X500737Y-1997791D01*
X500974Y-1993371D01*
X505090Y-1935820D01*
X514816Y-1799827D01*
X515760Y-1791056D01*
X517018Y-1782302D01*
X518587Y-1773611D01*
X558415Y-1590521D01*
X560602Y-1581956D01*
X563089Y-1573486D01*
X565884Y-1565088D01*
X631359Y-1389542D01*
X631371Y-1389508D01*
X634749Y-1381357D01*
X638419Y-1373322D01*
X642373Y-1365423D01*
X732175Y-1200961D01*
X736677Y-1193374D01*
X741469Y-1185918D01*
X746510Y-1178660D01*
X858797Y-1028662D01*
X864338Y-1021787D01*
X870122Y-1015112D01*
X876139Y-1008648D01*
X1008648Y-876139D01*
X1015112Y-870122D01*
X1021787Y-864338D01*
X1028662Y-858797D01*
X1178669Y-746503D01*
X1185918Y-741469D01*
X1193374Y-736677D01*
X1200961Y-732175D01*
X1365433Y-642367D01*
X1373332Y-638414D01*
X1381360Y-634747D01*
X1389508Y-631371D01*
X1565096Y-565881D01*
X1573486Y-563089D01*
X1581956Y-560602D01*
X1590521Y-558415D01*
X1773625Y-518584D01*
X1782292Y-517019D01*
X1791077Y-515756D01*
X1799840Y-514815D01*
X1993375Y-500973D01*
X1997792Y-500737D01*
X1998530Y-500710D01*
X2002219Y-500579D01*
X2006643Y-500500D01*
X57993357Y-500500D01*
X57997782Y-500579D01*
G37*
%TD.AperFunction*%
%TD*%
M02*
